<svg version="1.1" id="Capa_1" xmlns="http://www.w3.org/2000/svg" x="0px" y="0px" viewBox="0 0 32 32" style="enable-background:new 0 0 32 32;" xml:space="preserve"><g><path style="fill-rule:evenodd;clip-rule:evenodd;" d="M16,0C7.163,0,0,7.163,0,16s7.163,16,16,16c8.837,0,16-7.164,16-16S24.837,0,16,0z M16,30C8.268,30,2,23.732,2,16S8.268,2,16,2s14,6.268,14,14S23.732,30,16,30z M22,15h-5v-5c0-0.552-0.448-1-1-1c-0.552,0-1,0.448-1,1v5h-5c-0.552,0-1,0.448-1,1s0.448,1,1,1h5v5c0,0.552,0.448,1,1,1c0.552,0,1-0.448,1-1v-5h5c0.552,0,1-0.448,1-1S22.552,15,22,15z" fill="#FFFFFF"/></g></svg>