<svg version="1.1" id="Capa_1" xmlns="http://www.w3.org/2000/svg" xmlns:xlink="http://www.w3.org/1999/xlink" x="0px" y="0px" width="88px" height="88px" viewBox="0 0 88 88" enable-background="new 0 0 88 88" xml:space="preserve"><g><circle fill="#1abc9c" cx="44" cy="44" r="44"/><g><g><path fill="#3F3F3F" d="M29.372,74.149c-0.184,0-0.368-0.062-0.521-0.184l-11.078-9.066c-0.183-0.149-0.292-0.369-0.3-0.606c-0.009-0.235,0.086-0.463,0.256-0.626l2.867-2.703c0.735-0.693,1.458-1.517,1.622-1.839c-0.072-0.288-0.547-0.904-1.052-1.355L7.115,47.373c-0.191-0.143-0.312-0.358-0.331-0.595c-0.018-0.235,0.063-0.468,0.23-0.637c0.134-0.14,3.295-3.399,4.904-4.666c2.41-1.9,4.949-1.606,6.654-1.024c0.531,0.18,2.307,1.078,5.16,2.528c2.741,1.394,5.848,2.972,6.749,3.299c0.95,0.344,1.472,0.389,1.739,0.367c0.649-0.055,2.335-1.21,3.27-1.972l22.388-18.605l6.009-5.008c0.155-0.13,0.358-0.196,0.559-0.188l10.709,0.425c0.276,0.011,0.531,0.162,0.672,0.4c0.13,0.221,3.146,5.482-3.301,11.994c-0.114,0.111-1.883,1.785-2.235,2.119c-0.116,0.105-10.079,9.013-15.138,13.752c-0.329,0.311-0.849,0.294-1.16-0.036c-0.31-0.329-0.292-0.851,0.039-1.16c5.07-4.751,15.041-13.669,15.147-13.764c0,0,2.061-1.95,2.186-2.072c4.629-4.675,3.703-8.429,3.228-9.61l-9.896-0.395l-5.77,4.806L36.534,45.941c-0.458,0.375-2.788,2.224-4.175,2.34c-0.634,0.053-1.434-0.096-2.437-0.459c-0.996-0.361-4.015-1.896-6.934-3.38c-2.108-1.071-4.497-2.286-4.945-2.438c-1.919-0.654-3.639-0.399-5.108,0.761c-1.099,0.864-3.063,2.816-4.084,3.848l13.323,9.86c0.019,0.013,0.036,0.026,0.054,0.042c0.384,0.335,1.634,1.52,1.642,2.661c0.003,0.236,0.009,0.95-2.143,2.981l-2.188,2.062l9.771,7.998l6.815-7.007c0.316-0.326,0.835-0.332,1.159-0.017c0.326,0.315,0.333,0.834,0.017,1.159L29.96,73.9C29.798,74.067,29.586,74.149,29.372,74.149z"/><path fill="#FFFFFF" d="M51.133,46.338c-0.726,0-1.317,0.592-1.317,1.319v18.396l-8.149,7.162V55.864c0-0.728-0.591-1.319-1.318-1.319c-0.727,0-1.319,0.592-1.319,1.319v20.268c0,0.517,0.304,0.988,0.774,1.201c0.171,0.076,0.354,0.116,0.544,0.116c0.32,0,0.628-0.116,0.87-0.328l10.785-9.479c0.286-0.251,0.451-0.612,0.451-0.992V47.657C52.454,46.93,51.861,46.338,51.133,46.338z"/><g><path fill="#3F3F3F" d="M56.159,33.868c0.402,0.522,0.302,1.287-0.245,1.707c-0.523,0.402-1.286,0.302-1.689-0.221c-0.42-0.548-0.318-1.313,0.205-1.714C54.974,33.221,55.741,33.32,56.159,33.868z"/><path fill="#3F3F3F" d="M61.49,29.772c0.403,0.523,0.302,1.287-0.245,1.708c-0.523,0.402-1.288,0.302-1.688-0.223c-0.421-0.546-0.319-1.311,0.202-1.711C60.306,29.126,61.07,29.225,61.49,29.772z"/><path fill="#3F3F3F" d="M66.82,25.676c0.402,0.525,0.301,1.289-0.245,1.708c-0.521,0.403-1.286,0.303-1.691-0.222c-0.418-0.545-0.317-1.312,0.206-1.712C65.637,25.029,66.401,25.13,66.82,25.676z"/></g></g></g></g></svg>