<?xml version="1.0" encoding="utf-8"?>
<!DOCTYPE svg PUBLIC "-//W3C//DTD SVG 1.1//EN" "http://www.w3.org/Graphics/SVG/1.1/DTD/svg11.dtd">
<svg version="1.1" id="Capa_1" xmlns="http://www.w3.org/2000/svg" xmlns:xlink="http://www.w3.org/1999/xlink" x="0px" y="0px"
 width="200px" height="150px" viewBox="0 0 200 150" enable-background="new 0 0 200 150" xml:space="preserve">
<g>
<path fill="#4D4C4C" d="M47.345,76.563c-0.25-1.603-1.166-2.747-3.247-2.747c-3.434,0-4.017,2.352-4.017,6.369
c0,4.059,0.583,6.41,4.017,6.41c2.373,0,3.247-1.478,3.309-3.413l1.499,0.083c-0.187,2.872-1.374,4.828-4.808,4.828
c-4.725,0-5.849-2.955-5.849-7.908c0-4.933,1.124-7.868,5.849-7.868c3.185,0,4.412,1.582,4.725,3.975L47.345,76.563z"/>
<path fill="#4D4C4C" d="M49.468,81.85c0-3.227,0.978-6.244,5.162-6.244c4.183,0,5.162,3.018,5.162,6.244
c0,3.226-0.979,6.243-5.162,6.243C50.446,88.093,49.468,85.075,49.468,81.85z M58.001,81.85c0-2.456-0.5-4.787-3.372-4.787
c-2.893,0-3.372,2.331-3.372,4.787c0,2.455,0.479,4.787,3.372,4.787C57.502,86.637,58.001,84.305,58.001,81.85z"/>
<path fill="#4D4C4C" d="M68.407,85.991c-0.999,1.103-2.456,2.102-4.183,2.102c-3.081,0-3.83-3.018-3.83-6.243
c0-3.227,0.874-6.244,4.641-6.244c1.124,0,2.29,0.333,3.289,0.812v-4.392l1.79-0.208v15.984h-1.187L68.407,85.991z M68.324,84.639
v-6.807c-1.083-0.582-2.144-0.812-2.935-0.812c-2.477,0-3.205,2.019-3.205,4.829c0,2.768,0.708,4.787,2.622,4.787
C66.181,86.637,67.263,85.929,68.324,84.639z"/>
<path fill="#4D4C4C" d="M71.8,81.85c0-3.227,0.958-6.244,4.974-6.244c3.996,0,4.912,2.893,4.912,5.994v0.437h-8.117
c0.021,3.206,0.812,4.601,3.289,4.601c2.289,0,3.039-1.021,3.164-2.394l1.478,0.083c-0.208,1.998-1.27,3.767-4.641,3.767
C73.091,88.093,71.8,85.887,71.8,81.85z M73.611,80.704h6.286c-0.125-2.081-0.75-3.642-3.143-3.642
C74.485,77.063,73.777,78.665,73.611,80.704z"/>
<path fill="#4D4C4C" d="M82.831,78.853c0.437-1.978,1.811-3.247,4.225-3.247c2.311,0,4.204,0.749,4.204,4.162v8.034h-1.187
l-0.458-1.853c-0.874,0.937-2.372,2.144-4.392,2.144c-2.247,0-3.059-1.353-3.059-3.06c0-1.727,0.729-3.018,4.204-3.579l3.101-0.5
v-1.187c0-2.227-1.124-2.705-2.456-2.705c-1.54,0-2.456,0.832-2.727,2.227L82.831,78.853z M89.47,84.7v-2.497l-2.935,0.499
c-2.123,0.375-2.602,1.271-2.602,2.29c0,0.957,0.5,1.728,1.79,1.728C87.284,86.72,88.471,85.783,89.47,84.7z"/>
<path fill="#4D4C4C" d="M95.382,77.146c1.082-0.791,2.664-1.54,4.329-1.54c2.539,0,3.517,1.29,3.517,3.746v8.45h-1.789v-8.408
c0-1.645-0.583-2.331-2.082-2.331c-1.395,0-2.643,0.541-3.746,1.395v9.345h-1.79V75.896h1.062L95.382,77.146z"/>
<path fill="#4D4C4C" d="M112.718,85.991c-0.999,1.103-2.456,2.102-4.184,2.102c-3.08,0-3.829-3.018-3.829-6.243
c0-3.227,0.874-6.244,4.642-6.244c1.123,0,2.289,0.333,3.288,0.812v-4.392l1.79-0.208v15.984h-1.187L112.718,85.991z
 M112.635,84.639v-6.807c-1.082-0.582-2.144-0.812-2.935-0.812c-2.477,0-3.205,2.019-3.205,4.829c0,2.768,0.707,4.787,2.622,4.787
C110.491,86.637,111.573,85.929,112.635,84.639z"/>
<path fill="#4D4C4C" d="M116.11,81.85c0-3.227,0.979-6.244,5.161-6.244c4.184,0,5.162,3.018,5.162,6.244
c0,3.226-0.979,6.243-5.162,6.243C117.089,88.093,116.11,85.075,116.11,81.85z M124.644,81.85c0-2.456-0.5-4.787-3.372-4.787
c-2.893,0-3.371,2.331-3.371,4.787c0,2.455,0.479,4.787,3.371,4.787C124.144,86.637,124.644,84.305,124.644,81.85z"/>
<path fill="#4D4C4C" d="M142.188,72.608l0.396,15.193h-2.789l-0.229-11.697l-3.393,9.887h-2.456l-3.06-9.554l-0.208,11.364h-2.789
l0.375-15.193h3.976l2.976,9.595l3.247-9.595H142.188z"/>
<path fill="#4D4C4C" d="M143.438,81.85c0-3.227,0.999-6.244,5.245-6.244c4.204,0,5.078,2.914,5.078,6.035v0.75h-7.617
c0.041,2.643,0.812,3.559,2.705,3.559c1.79,0,2.373-0.729,2.456-1.665l2.29,0.083c-0.188,2.04-1.291,3.726-4.829,3.726
C144.812,88.093,143.438,85.887,143.438,81.85z M146.206,80.496h4.808c-0.146-1.748-0.687-2.747-2.352-2.747
C147.06,77.749,146.414,78.623,146.206,80.496z M146.872,73.399l4.059-2.769l1.248,1.998l-4.37,2.269L146.872,73.399z"/>
<path fill="#4D4C4C" d="M154.739,87.802l4.017-5.974l-3.83-5.932h3.06l2.331,3.622l2.373-3.622h2.81l-3.788,5.786l3.976,6.119
h-3.06l-2.497-3.829l-2.581,3.829H154.739z"/>
<path fill="#4D4C4C" d="M167.81,72.879c0-0.77,0.229-1.624,1.561-1.624c1.374,0,1.603,0.854,1.603,1.624
c0,0.749-0.229,1.603-1.603,1.603C168.038,74.481,167.81,73.628,167.81,72.879z M170.765,75.896v11.905h-2.789V75.896H170.765z"/>
<path fill="#4D4C4C" d="M179.007,85.949c1.686,0,2.373-0.729,2.436-2.248l2.185,0.104c-0.166,2.664-1.353,4.287-4.891,4.287
c-4.163,0-4.975-3.018-4.975-6.243c0-3.289,0.812-6.244,4.975-6.244c3.518,0,4.683,1.561,4.87,4.1l-2.164,0.292
c-0.063-1.52-0.75-2.248-2.436-2.248c-1.956,0-2.456,1.457-2.456,4.101C176.551,84.492,177.051,85.949,179.007,85.949z"/>
<path fill="#4D4C4C" d="M185.209,81.85c0-3.227,1.021-6.244,5.411-6.244c4.392,0,5.412,3.018,5.412,6.244
c0,3.226-1.021,6.243-5.412,6.243C186.229,88.093,185.209,85.075,185.209,81.85z M193.243,81.85c0-2.353-0.396-4.101-2.623-4.101
c-2.227,0-2.622,1.748-2.622,4.101c0,2.352,0.396,4.1,2.622,4.1C192.848,85.949,193.243,84.201,193.243,81.85z"/>
</g>
<path fill-rule="evenodd" clip-rule="evenodd" fill="#4D4C4C" d="M34.691,79.345c-0.203,5.806-2.697,10.325-7.674,13.378
c-3.117,1.912-6.544,2.554-10.165,2.086c-6.185-0.801-11.313-5.223-13.035-11.204c-1.53-5.313-0.083-11.092,3.778-15.064
c2.367-2.436,5.226-3.975,8.569-4.564c7.53-1.327,14.659,2.801,17.399,9.585C34.311,75.411,34.68,77.337,34.691,79.345z
 M11.355,80.717c1.943,1.983,3.873,3.954,5.81,5.932c0.623-0.602,1.228-1.186,1.84-1.776c-1.344-1.374-2.677-2.735-4.018-4.104
c1.388-1.34,2.758-2.662,4.159-4.014c-0.627-0.592-1.238-1.17-1.86-1.759C15.341,76.872,13.359,78.785,11.355,80.717z
 M22.568,77.908c-1.386,1.337-2.757,2.661-4.158,4.013c0.624,0.594,1.236,1.176,1.855,1.764c1.958-1.889,3.939-3.8,5.935-5.725
c-1.943-1.983-3.873-3.953-5.811-5.932c-0.622,0.601-1.226,1.184-1.84,1.775C19.893,75.177,21.222,76.534,22.568,77.908z"/>
</svg>
