<svg version="1.1" id="Capa_1" xmlns="http://www.w3.org/2000/svg" xmlns:xlink="http://www.w3.org/1999/xlink" x="0px" y="0px" width="38px" height="38px" viewBox="0 0 38 38" enable-background="new 0 0 38 38" xml:space="preserve"><g><g><path fill="#FFFFFF" d="M11.489,9.169c0,0.854,0.683,1.546,1.52,1.546h21.006c0.838,0,1.52-0.692,1.52-1.546c0-0.853-0.682-1.546-1.52-1.546H13.008C12.171,7.624,11.489,8.315,11.489,9.169z"/><path fill="#FFFFFF" d="M11.354,17.581c0.284,0.241,0.63,0.357,0.971,0.357c0.436,0,0.869-0.188,1.169-0.555c0.537-0.656,0.45-1.63-0.191-2.178L6.4,9.352l6.961-5.591c0.658-0.53,0.773-1.503,0.252-2.172c-0.524-0.671-1.477-0.785-2.134-0.256L3.047,8.105C2.685,8.394,2.474,8.833,2.466,9.299c-0.004,0.466,0.195,0.909,0.546,1.209L11.354,17.581z"/></g><g><path fill="#FFFFFF" d="M26.511,28.219c0-0.854-0.683-1.547-1.52-1.547H3.986c-0.838,0-1.52,0.692-1.52,1.547c0,0.853,0.681,1.546,1.52,1.546h21.005C25.828,29.765,26.511,29.072,26.511,28.219z"/><path fill="#FFFFFF" d="M26.645,19.807c-0.284-0.241-0.631-0.357-0.972-0.357c-0.436,0-0.868,0.188-1.168,0.555c-0.537,0.655-0.45,1.631,0.191,2.178l6.902,5.854l-6.961,5.591c-0.658,0.53-0.772,1.503-0.252,2.172c0.523,0.672,1.476,0.785,2.134,0.256l8.433-6.772c0.362-0.288,0.573-0.727,0.581-1.193c0.003-0.466-0.196-0.909-0.548-1.209L26.645,19.807z"/></g></g></svg>