<svg version="1.1" id="Layer_1" xmlns="http://www.w3.org/2000/svg" x="0px" y="0px" width="26px" height="26px" viewBox="0 0 26 26" enable-background="new 0 0 26 26" xml:space="preserve" fill="#FFFFFF"><g><path d="M11.687,14.243c-0.101,0-0.197,0.039-0.269,0.111c-0.071,0.07-0.111,0.167-0.111,0.269l0.008,2.55H6.209V6.205h7.514v1.36c0.151-0.102,0.334-0.162,0.53-0.162h0.547V5.689c0-0.188-0.153-0.342-0.342-0.342H5.525c-0.188,0-0.342,0.153-0.342,0.342v12.046c0,0.189,0.153,0.343,0.342,0.343h6.664c0.097,0,0.19-0.042,0.255-0.114l0.853-0.956v-2.764L11.687,14.243L11.687,14.243z"/><path d="M10.663,13.142l2.208-1.827c0,0,0.175-0.15,0.018-0.307c-0.216-0.216-2.279-1.77-2.279-1.77s-0.274-0.276-0.274,0.09c0,0.367,0,0.951,0,0.951s-0.159,0-0.403,0c-0.75,0-2.212,0-2.771,0c0,0-0.131-0.004-0.131,0.166c0,0.169,0,1.211,0,1.448s0.157,0.196,0.157,0.196c0.575,0,1.988,0,2.765,0c0.272,0,0.448,0,0.448,0s0,0.729,0,1.029C10.4,13.419,10.663,13.142,10.663,13.142z"/><path d="M22.921,7.922h-8.935c-0.188,0-0.341,0.153-0.341,0.342v12.046c0,0.188,0.153,0.342,0.341,0.342h6.664c0.098,0,0.19-0.042,0.255-0.114l2.271-2.542c0.057-0.063,0.087-0.144,0.087-0.227V8.265C23.263,8.076,23.109,7.922,22.921,7.922z M22.186,16.819l-2.037-0.001c-0.001,0-0.001,0-0.001,0c-0.101,0-0.196,0.04-0.268,0.11s-0.111,0.168-0.11,0.269l0.007,2.55h-5.104V8.779h7.514V16.819z"/><path d="M17.837,16.248c0,0,0.274,0.275,0.274-0.09c0-0.367,0-0.951,0-0.951s0.158,0,0.402,0c0.751,0,2.212,0,2.771,0c0,0,0.132,0.005,0.132-0.165s0-1.211,0-1.449c0-0.237-0.156-0.196-0.156-0.196c-0.575,0-1.989,0-2.766,0c-0.271,0-0.448,0-0.448,0s0-0.728,0-1.029c0-0.301-0.262-0.023-0.262-0.023l-2.209,1.826c0,0-0.175,0.15-0.018,0.308C15.773,14.693,17.837,16.248,17.837,16.248z"/></g></svg>