<svg version="1.1" xmlns="http://www.w3.org/2000/svg" xmlns:xlink="http://www.w3.org/1999/xlink" x="0px" y="0px" width="38.875px" height="52.375px" viewBox="0 0 38.875 52.375" enable-background="new 0 0 38.875 52.375" xml:space="preserve"><path  fill="#FFFFFF" d="M35.687,20.866c-0.402-0.378-1.033-0.359-1.414,0.041l-13.98,14.808L6.311,20.907c-0.379-0.4-1.012-0.419-1.414-0.041c-0.401,0.38-0.42,1.013-0.041,1.414L19.48,37.77c0.197,0.208,0.462,0.313,0.728,0.313c0.028,0,0.056-0.014,0.084-0.016c0.028,0.002,0.056,0.016,0.084,0.016c0.266,0,0.53-0.105,0.728-0.313L35.728,22.28C36.106,21.879,36.088,21.246,35.687,20.866z"/></svg>