<?xml version="1.0" encoding="utf-8"?>
<!-- Generator: Adobe Illustrator 16.0.0, SVG Export Plug-In . SVG Version: 6.00 Build 0)  -->
<!DOCTYPE svg PUBLIC "-//W3C//DTD SVG 1.1//EN" "http://www.w3.org/Graphics/SVG/1.1/DTD/svg11.dtd">
<svg version="1.1" id="Capa_1" xmlns="http://www.w3.org/2000/svg" xmlns:xlink="http://www.w3.org/1999/xlink" x="0px" y="0px"
	 width="200px" height="150px" viewBox="0 0 200 150" enable-background="new 0 0 200 150" xml:space="preserve">
<g>
	<g>
		<rect x="7.553" y="60.856" fill="#1D796E" width="9.513" height="51.158"/>
		<path fill="#1D796E" d="M37.518,53.246c0-4.982,4.371-9.037,9.354-9.037c2.238,0,4.385,0.824,6.044,2.319l6.58-7.304
			c-3.469-3.125-7.952-4.845-12.624-4.845c-10.111,0-18.388,7.994-18.845,17.994h-0.022v8.482h-8.826v8.244h8.826v42.598h9.513
			V69.101h8.931v-8.244h-8.931V53.246z"/>
		<circle fill="#1D796E" cx="12.416" cy="50.71" r="5.919"/>
		<rect x="102.258" y="60.856" fill="#1D796E" width="9.512" height="51.158"/>
		<circle fill="#1D796E" cx="107.119" cy="50.71" r="5.919"/>
		<path fill="#1D796E" d="M71.71,62.951c-13.816,0-25.058,11.24-25.058,25.058s11.241,25.058,25.058,25.058
			c5.817,0,11.174-1.998,15.432-5.337v4.497h9.566V89.655c0.035-0.545,0.06-1.093,0.06-1.646
			C96.768,74.191,85.527,62.951,71.71,62.951z M71.71,103.327c-8.446,0-15.318-6.871-15.318-15.318S63.264,72.69,71.71,72.69
			s15.318,6.871,15.318,15.318S80.157,103.327,71.71,103.327z"/>
	</g>
	<path fill="#6B2C82" d="M150.773,110.429h-19.66c-0.877,0-1.586-0.71-1.586-1.585V69.947c0-0.876,0.709-1.586,1.586-1.586h18.391
		c0.877,0,1.586,0.71,1.586,1.586c0,0.875-0.709,1.585-1.586,1.585h-16.805v35.726h18.074c0.875,0,1.584,0.71,1.584,1.586
		C152.357,109.719,151.648,110.429,150.773,110.429z"/>
	<path fill="#6B2C82" d="M175.506,126.706c-0.229,0-0.461-0.049-0.676-0.151c-0.555-0.262-0.908-0.82-0.908-1.434V82.285
		l-16.912-9.613v36.714l14.051,12.435c0.656,0.58,0.717,1.582,0.137,2.238c-0.58,0.655-1.582,0.717-2.238,0.136l-14.586-12.908
		c-0.34-0.301-0.535-0.732-0.535-1.187V69.947c0-0.565,0.301-1.087,0.789-1.371c0.486-0.283,1.09-0.287,1.58-0.008l20.082,11.415
		c0.496,0.282,0.803,0.809,0.803,1.379v40.398l14.797-12.186V65.754l-15.197,8.331c-0.473,0.259-1.041,0.261-1.516,0.005
		l-18.393-9.936c-0.535-0.29-0.859-0.861-0.83-1.471s0.406-1.147,0.969-1.385l17.545-7.399c0.424-0.178,0.902-0.164,1.314,0.037
		l10.781,5.285c0.785,0.386,1.111,1.335,0.727,2.122c-0.387,0.785-1.336,1.109-2.123,0.726l-10.133-4.967l-13.834,5.834
		l14.725,7.953l16.789-9.204c0.492-0.269,1.088-0.259,1.57,0.026s0.777,0.805,0.777,1.364v47.247c0,0.475-0.213,0.923-0.578,1.225
		l-17.969,14.797C176.225,126.583,175.867,126.706,175.506,126.706z"/>
	<path fill="#6B2C82" d="M174.977,52.17c-8.904,0-16.15-7.246-16.15-16.151c0-8.906,7.246-16.152,16.15-16.152
		c8.906,0,16.152,7.246,16.152,16.152C191.129,44.924,183.883,52.17,174.977,52.17z M174.977,22.786
		c-7.295,0-13.232,5.936-13.232,13.232c0,7.296,5.938,13.232,13.232,13.232c7.297,0,13.232-5.937,13.232-13.232
		C188.209,28.722,182.273,22.786,174.977,22.786z"/>
	<path fill="#6B2C82" d="M160.287,109.465c-0.422,0-0.834-0.21-1.076-0.593c-0.373-0.594-0.193-1.376,0.398-1.749l11.416-7.175
		c0.596-0.374,1.377-0.194,1.75,0.398c0.371,0.594,0.193,1.376-0.4,1.749l-11.414,7.175
		C160.75,109.402,160.518,109.465,160.287,109.465z"/>
	<path fill="#6B2C82" d="M189.67,110.111c-0.271,0-0.545-0.086-0.775-0.264l-9.303-7.188c-0.553-0.429-0.656-1.225-0.229-1.779
		c0.43-0.555,1.227-0.656,1.779-0.229l9.303,7.188c0.555,0.429,0.656,1.225,0.229,1.779
		C190.424,109.942,190.049,110.111,189.67,110.111z"/>
	<g>
		<polygon points="14.082,120.17 8.332,120.17 8.332,121.592 10.5,121.592 10.5,128.471 11.912,128.471 11.912,121.592 
			14.082,121.592 		"/>
		<path d="M15.432,123.134v-0.593h-1.375v5.93h1.375v-2.716c0-0.253,0.058-0.491,0.173-0.718c0.115-0.225,0.271-0.422,0.468-0.593
			c0.197-0.169,0.427-0.305,0.688-0.402c0.262-0.099,0.54-0.148,0.841-0.148v-1.376c-0.434,0-0.833,0.054-1.196,0.16
			S15.718,122.938,15.432,123.134z"/>
		<path d="M23.23,123.212c-0.289-0.288-0.629-0.518-1.02-0.688c-0.392-0.17-0.813-0.256-1.264-0.256s-0.871,0.086-1.263,0.256
			s-0.732,0.399-1.025,0.688c-0.294,0.288-0.523,0.628-0.694,1.02c-0.169,0.392-0.255,0.814-0.255,1.262
			c0,0.451,0.077,0.871,0.231,1.264c0.154,0.392,0.371,0.733,0.652,1.026c0.28,0.291,0.62,0.521,1.02,0.688s0.844,0.249,1.334,0.249
			c0.688,0,1.305-0.194,1.85-0.581v0.332h1.375v-2.978c0-0.447-0.083-0.87-0.253-1.262C23.747,123.84,23.518,123.5,23.23,123.212z
			 M22.654,126.235c-0.095,0.226-0.229,0.422-0.397,0.589c-0.172,0.167-0.371,0.293-0.596,0.384
			c-0.226,0.091-0.466,0.135-0.72,0.135s-0.494-0.047-0.719-0.146c-0.228-0.099-0.424-0.233-0.591-0.399
			c-0.165-0.166-0.299-0.363-0.397-0.585c-0.098-0.227-0.148-0.468-0.148-0.72c0-0.251,0.051-0.49,0.148-0.718
			c0.099-0.223,0.232-0.419,0.397-0.586c0.167-0.166,0.363-0.299,0.591-0.396c0.225-0.099,0.465-0.148,0.719-0.148
			s0.494,0.05,0.72,0.148c0.225,0.097,0.423,0.229,0.589,0.396c0.167,0.167,0.3,0.363,0.398,0.586
			c0.1,0.228,0.148,0.467,0.148,0.718C22.796,125.764,22.75,126.009,22.654,126.235z"/>
		<path d="M30.161,123.923c-0.142-0.33-0.337-0.614-0.586-0.858c-0.25-0.246-0.538-0.44-0.866-0.581
			c-0.328-0.145-0.675-0.215-1.037-0.215c-0.277,0.008-0.527,0.064-0.748,0.166c-0.22,0.103-0.411,0.253-0.57,0.451v-0.345h-1.374
			v5.93h1.388l-0.014-3.498c0-0.165,0.038-0.327,0.108-0.486c0.071-0.157,0.166-0.297,0.285-0.416s0.255-0.212,0.414-0.29
			c0.158-0.072,0.327-0.111,0.511-0.111c0.182,0,0.352,0.032,0.509,0.105c0.159,0.072,0.298,0.167,0.415,0.286
			c0.12,0.118,0.211,0.255,0.279,0.414c0.066,0.158,0.102,0.325,0.102,0.498l0.012,3.498h1.398l-0.012-3.498
			C30.375,124.599,30.303,124.251,30.161,123.923z"/>
		<path d="M35.076,125.493c-0.155-0.157-0.335-0.293-0.539-0.4c-0.207-0.112-0.427-0.209-0.665-0.285
			c-0.402-0.136-0.706-0.242-0.907-0.321c-0.201-0.078-0.318-0.185-0.35-0.32c-0.047-0.22,0.008-0.392,0.166-0.511
			c0.158-0.118,0.336-0.177,0.534-0.177c0.332,0,0.537,0.073,0.616,0.223h1.388c-0.04-0.164-0.114-0.331-0.225-0.503
			c-0.111-0.171-0.254-0.323-0.429-0.46c-0.174-0.141-0.37-0.253-0.592-0.337c-0.222-0.088-0.459-0.133-0.712-0.133
			c-0.3,0-0.583,0.054-0.849,0.161c-0.264,0.106-0.495,0.251-0.693,0.433c-0.197,0.182-0.347,0.394-0.449,0.64
			c-0.104,0.247-0.144,0.512-0.12,0.795c0.032,0.284,0.107,0.521,0.226,0.718c0.119,0.19,0.268,0.355,0.445,0.487
			c0.178,0.13,0.374,0.232,0.587,0.312s0.431,0.147,0.652,0.202c0.332,0.088,0.581,0.181,0.753,0.285
			c0.17,0.104,0.25,0.275,0.242,0.508c-0.008,0.16-0.082,0.312-0.227,0.451c-0.145,0.146-0.335,0.215-0.572,0.215
			c-0.256,0-0.462-0.079-0.617-0.243c-0.154-0.164-0.235-0.351-0.242-0.563h-1.376c0,0.309,0.065,0.591,0.201,0.848
			c0.134,0.257,0.305,0.475,0.516,0.651c0.21,0.178,0.445,0.316,0.711,0.414c0.265,0.099,0.528,0.15,0.788,0.15
			c0.293,0,0.573-0.044,0.842-0.13c0.271-0.088,0.507-0.212,0.712-0.376c0.207-0.161,0.369-0.359,0.493-0.594
			c0.121-0.232,0.184-0.498,0.184-0.799c0-0.293-0.043-0.55-0.131-0.772C35.35,125.844,35.23,125.651,35.076,125.493z"/>
		<path d="M41.895,123.226c-0.289-0.291-0.63-0.52-1.021-0.689c-0.392-0.172-0.812-0.255-1.264-0.255
			c-0.449,0-0.871,0.083-1.263,0.249c-0.391,0.165-0.733,0.394-1.024,0.682c-0.293,0.288-0.522,0.628-0.688,1.02
			s-0.25,0.815-0.25,1.274v5.312h1.376v-2.785c0.103,0.094,0.226,0.182,0.369,0.265c0.142,0.083,0.294,0.157,0.455,0.223
			c0.163,0.063,0.332,0.114,0.505,0.151c0.174,0.041,0.347,0.062,0.521,0.062c0.452,0,0.872-0.086,1.264-0.255
			c0.391-0.17,0.731-0.398,1.021-0.689c0.288-0.288,0.518-0.628,0.688-1.021c0.169-0.39,0.255-0.81,0.255-1.262
			c0-0.45-0.086-0.87-0.255-1.265C42.413,123.853,42.183,123.511,41.895,123.226z M41.314,126.223
			c-0.1,0.228-0.232,0.42-0.398,0.586c-0.165,0.169-0.361,0.301-0.585,0.399c-0.227,0.099-0.467,0.147-0.72,0.147
			c-0.252,0-0.49-0.049-0.717-0.147c-0.225-0.099-0.421-0.23-0.587-0.399c-0.166-0.166-0.298-0.358-0.396-0.586
			c-0.101-0.223-0.149-0.461-0.149-0.717c0-0.254,0.049-0.491,0.149-0.718c0.099-0.225,0.23-0.422,0.396-0.589
			c0.166-0.164,0.362-0.294,0.587-0.393c0.227-0.099,0.465-0.151,0.717-0.151c0.253,0,0.493,0.053,0.72,0.151
			c0.224,0.099,0.42,0.229,0.585,0.393c0.166,0.167,0.299,0.364,0.398,0.589c0.099,0.227,0.148,0.464,0.148,0.718
			C41.462,125.762,41.413,126,41.314,126.223z"/>
		<path d="M48.997,123.212c-0.289-0.288-0.628-0.518-1.019-0.688c-0.393-0.17-0.813-0.256-1.265-0.256
			c-0.449,0-0.87,0.086-1.263,0.256c-0.392,0.17-0.731,0.399-1.025,0.688c-0.293,0.288-0.523,0.628-0.693,1.02
			c-0.169,0.392-0.256,0.814-0.256,1.262c0,0.451,0.078,0.871,0.232,1.264c0.154,0.392,0.37,0.733,0.652,1.026
			c0.279,0.291,0.619,0.521,1.019,0.688s0.845,0.249,1.334,0.249c0.688,0,1.306-0.194,1.851-0.581v0.332h1.375v-2.978
			c0-0.447-0.084-0.87-0.254-1.262C49.513,123.84,49.286,123.5,48.997,123.212z M48.42,126.235
			c-0.094,0.226-0.228,0.422-0.396,0.589c-0.173,0.167-0.37,0.293-0.596,0.384s-0.466,0.135-0.72,0.135s-0.494-0.047-0.72-0.146
			c-0.227-0.099-0.423-0.233-0.591-0.399c-0.165-0.166-0.298-0.363-0.396-0.585c-0.099-0.227-0.149-0.468-0.149-0.72
			c0-0.251,0.051-0.49,0.149-0.718c0.099-0.223,0.231-0.419,0.396-0.586c0.168-0.166,0.364-0.299,0.591-0.396
			c0.226-0.099,0.466-0.148,0.72-0.148s0.494,0.05,0.72,0.148c0.226,0.097,0.423,0.229,0.589,0.396
			c0.167,0.167,0.299,0.363,0.397,0.586c0.1,0.228,0.149,0.467,0.149,0.718C48.564,125.764,48.518,126.009,48.42,126.235z"/>
		<path d="M52.18,123.134v-0.593h-1.375v5.93h1.375v-2.716c0-0.253,0.058-0.491,0.174-0.718c0.113-0.225,0.271-0.422,0.468-0.593
			c0.196-0.169,0.427-0.305,0.688-0.402c0.26-0.099,0.54-0.148,0.84-0.148v-1.376c-0.434,0-0.833,0.054-1.197,0.16
			C52.791,122.784,52.466,122.938,52.18,123.134z"/>
		<path d="M60.795,124.324c-0.154-0.399-0.369-0.749-0.646-1.053c-0.277-0.306-0.612-0.549-1.009-0.73
			c-0.395-0.182-0.841-0.272-1.339-0.272c-0.452,0-0.872,0.086-1.263,0.256c-0.393,0.17-0.731,0.399-1.022,0.688
			s-0.52,0.628-0.688,1.02c-0.169,0.392-0.252,0.814-0.252,1.262c0,0.451,0.083,0.871,0.252,1.264
			c0.168,0.392,0.396,0.731,0.688,1.021c0.291,0.287,0.63,0.516,1.022,0.684c0.391,0.172,0.811,0.258,1.263,0.258
			c0.332,0,0.661-0.044,0.989-0.138c0.327-0.088,0.635-0.233,0.919-0.431c0.285-0.197,0.538-0.456,0.76-0.773
			c0.221-0.316,0.398-0.699,0.533-1.15h-1.506c-0.135,0.342-0.349,0.611-0.64,0.814c-0.294,0.202-0.645,0.301-1.056,0.301
			c-0.245,0-0.479-0.044-0.7-0.135s-0.415-0.216-0.581-0.374c-0.165-0.158-0.301-0.341-0.403-0.558
			c-0.102-0.215-0.157-0.443-0.166-0.686h5.088C61.032,125.147,60.95,124.724,60.795,124.324z M56.224,124.392
			c0.3-0.49,0.83-0.746,1.59-0.773c0.742,0.012,1.264,0.266,1.564,0.773H56.224z"/>
		<path d="M66.978,123.923c-0.141-0.33-0.337-0.614-0.586-0.858c-0.248-0.246-0.538-0.44-0.866-0.581
			c-0.327-0.145-0.674-0.215-1.037-0.215c-0.276,0.008-0.525,0.064-0.748,0.166c-0.22,0.103-0.41,0.253-0.568,0.451v-0.345h-1.376
			v5.93h1.388l-0.012-3.498c0-0.165,0.036-0.327,0.107-0.486c0.071-0.157,0.165-0.297,0.284-0.416
			c0.12-0.119,0.255-0.212,0.414-0.29c0.158-0.072,0.329-0.111,0.511-0.111s0.353,0.032,0.511,0.105
			c0.157,0.072,0.296,0.167,0.414,0.286c0.119,0.118,0.212,0.255,0.279,0.414c0.066,0.158,0.101,0.325,0.101,0.498l0.012,3.498
			h1.398l-0.012-3.498C67.192,124.599,67.121,124.251,66.978,123.923z"/>
		<path d="M69.85,124.189c0.165-0.166,0.36-0.299,0.586-0.396c0.226-0.099,0.465-0.148,0.717-0.148c0.293,0,0.565,0.051,0.818,0.153
			c0.254,0.103,0.467,0.271,0.64,0.511h1.556c-0.151-0.363-0.338-0.674-0.559-0.932s-0.465-0.469-0.729-0.635
			c-0.264-0.167-0.546-0.285-0.842-0.363c-0.296-0.072-0.591-0.111-0.884-0.111c-0.45,0-0.871,0.086-1.263,0.256
			s-0.73,0.399-1.022,0.688c-0.29,0.288-0.52,0.628-0.688,1.02c-0.169,0.392-0.251,0.814-0.251,1.262
			c0,0.451,0.082,0.871,0.251,1.264c0.168,0.392,0.397,0.731,0.688,1.021c0.292,0.287,0.631,0.516,1.022,0.684
			c0.392,0.172,0.813,0.258,1.263,0.258c0.309,0,0.61-0.039,0.903-0.117c0.291-0.08,0.568-0.201,0.829-0.368
			s0.498-0.382,0.717-0.643c0.218-0.26,0.402-0.568,0.551-0.923h-1.542c-0.157,0.224-0.362,0.388-0.615,0.503
			c-0.253,0.113-0.534,0.171-0.843,0.171c-0.252,0-0.491-0.047-0.717-0.146s-0.421-0.233-0.586-0.399
			c-0.167-0.166-0.299-0.363-0.397-0.585c-0.099-0.227-0.148-0.468-0.148-0.72c0-0.251,0.05-0.49,0.148-0.718
			C69.551,124.553,69.683,124.356,69.85,124.189z"/>
		<path d="M75.612,120.158c-0.238,0-0.438,0.083-0.604,0.248c-0.168,0.166-0.249,0.376-0.249,0.631c0,0.235,0.081,0.438,0.249,0.604
			c0.166,0.166,0.365,0.249,0.604,0.249c0.253,0,0.463-0.083,0.629-0.249c0.165-0.165,0.248-0.368,0.248-0.604
			c0-0.255-0.083-0.465-0.248-0.631C76.075,120.241,75.865,120.158,75.612,120.158z"/>
		<rect x="74.924" y="122.541" width="1.375" height="5.93"/>
		<path d="M82.674,123.212c-0.29-0.288-0.63-0.518-1.02-0.688c-0.393-0.17-0.813-0.256-1.265-0.256c-0.45,0-0.872,0.086-1.263,0.256
			c-0.392,0.17-0.733,0.399-1.024,0.688c-0.294,0.288-0.525,0.628-0.694,1.02c-0.17,0.392-0.256,0.814-0.256,1.262
			c0,0.451,0.078,0.871,0.232,1.264c0.154,0.392,0.371,0.733,0.651,1.026c0.281,0.291,0.62,0.521,1.02,0.688
			s0.844,0.249,1.334,0.249c0.689,0,1.306-0.194,1.851-0.581v0.332h1.375v-2.978c0-0.447-0.083-0.87-0.254-1.262
			S82.962,123.5,82.674,123.212z M82.098,126.235c-0.096,0.226-0.229,0.422-0.397,0.589c-0.172,0.167-0.371,0.293-0.596,0.384
			c-0.226,0.091-0.466,0.135-0.72,0.135c-0.255,0-0.494-0.047-0.72-0.146c-0.228-0.099-0.423-0.233-0.59-0.399
			c-0.166-0.166-0.3-0.363-0.398-0.585c-0.098-0.227-0.147-0.468-0.147-0.72c0-0.251,0.05-0.49,0.147-0.718
			c0.099-0.223,0.232-0.419,0.398-0.586c0.167-0.166,0.362-0.299,0.59-0.396c0.226-0.099,0.465-0.148,0.72-0.148
			c0.254,0,0.494,0.05,0.72,0.148c0.225,0.097,0.422,0.229,0.589,0.396c0.167,0.167,0.299,0.363,0.397,0.586
			c0.101,0.228,0.149,0.467,0.149,0.718C82.241,125.764,82.194,126.009,82.098,126.235z"/>
		<path d="M92.427,125.85c0,0.182-0.035,0.352-0.108,0.51c-0.071,0.159-0.166,0.298-0.285,0.415
			c-0.119,0.119-0.258,0.211-0.417,0.277c-0.158,0.068-0.329,0.104-0.513,0.104c-0.183,0-0.353-0.035-0.512-0.108
			c-0.158-0.069-0.297-0.166-0.417-0.284c-0.118-0.12-0.211-0.255-0.279-0.415c-0.067-0.156-0.102-0.327-0.102-0.509l-0.012-3.298
			h-1.375v3.298c0.007,0.617,0.197,1.158,0.569,1.628c0.37,0.473,0.853,0.806,1.445,1.004v2.347h1.376v-2.333
			c0.341-0.082,0.638-0.208,0.89-0.382c0.249-0.174,0.457-0.379,0.625-0.614c0.167-0.239,0.29-0.497,0.37-0.777
			c0.081-0.281,0.119-0.571,0.119-0.872v-3.298h-1.375V125.85z"/>
		<path d="M101.307,120.17H98.7v8.301h1.422v-2.978h1.185c0.428,0,0.814-0.048,1.162-0.152c0.35-0.104,0.646-0.262,0.895-0.477
			c0.25-0.213,0.443-0.485,0.574-0.817c0.137-0.332,0.203-0.731,0.203-1.194c0-0.888-0.25-1.552-0.752-1.995
			S102.193,120.187,101.307,120.17z M102.393,123.837c-0.25,0.187-0.607,0.279-1.072,0.279h-1.199v-2.546h1.199
			c0.432,0,0.783,0.097,1.051,0.291c0.264,0.194,0.395,0.526,0.395,0.996C102.766,123.323,102.641,123.65,102.393,123.837z"/>
		<path d="M106.217,123.134v-0.593h-1.377v5.93h1.377v-2.716c0-0.253,0.057-0.491,0.174-0.718c0.113-0.225,0.27-0.422,0.467-0.593
			c0.197-0.169,0.426-0.305,0.689-0.402c0.26-0.099,0.539-0.148,0.84-0.148v-1.376c-0.436,0-0.834,0.054-1.197,0.16
			S106.502,122.938,106.217,123.134z"/>
		<rect x="109.23" y="122.541" width="1.377" height="5.93"/>
		<path d="M109.918,120.158c-0.24,0-0.439,0.083-0.604,0.248c-0.168,0.166-0.25,0.376-0.25,0.631c0,0.235,0.082,0.438,0.25,0.604
			c0.164,0.166,0.363,0.249,0.604,0.249c0.252,0,0.461-0.083,0.627-0.249c0.164-0.165,0.248-0.368,0.248-0.604
			c0-0.255-0.084-0.465-0.248-0.631C110.379,120.241,110.17,120.158,109.918,120.158z"/>
		<polygon points="116.01,122.541 114.314,126.43 112.617,122.541 111.115,122.541 113.713,128.471 114.932,128.471 117.52,122.541 
					"/>
		<path d="M122.715,123.212c-0.285-0.288-0.627-0.518-1.016-0.688c-0.393-0.17-0.814-0.256-1.266-0.256s-0.871,0.086-1.262,0.256
			c-0.393,0.17-0.734,0.399-1.023,0.688c-0.297,0.288-0.525,0.628-0.697,1.02c-0.17,0.392-0.254,0.814-0.254,1.262
			c0,0.451,0.08,0.871,0.232,1.264c0.152,0.392,0.371,0.733,0.65,1.026c0.279,0.291,0.623,0.521,1.021,0.688
			c0.4,0.166,0.844,0.249,1.332,0.249c0.689,0,1.309-0.194,1.852-0.581v0.332h1.375v-2.978c0-0.447-0.084-0.87-0.256-1.262
			C123.234,123.84,123.006,123.5,122.715,123.212z M122.139,126.235c-0.092,0.226-0.227,0.422-0.395,0.589
			c-0.172,0.167-0.371,0.293-0.596,0.384c-0.229,0.091-0.465,0.135-0.721,0.135c-0.252,0-0.492-0.047-0.719-0.146
			c-0.229-0.099-0.42-0.233-0.59-0.399c-0.166-0.166-0.297-0.363-0.396-0.585c-0.1-0.227-0.15-0.468-0.15-0.72
			c0-0.251,0.051-0.49,0.15-0.718c0.1-0.223,0.23-0.419,0.396-0.586c0.17-0.166,0.361-0.299,0.59-0.396
			c0.227-0.099,0.467-0.148,0.719-0.148c0.256,0,0.492,0.05,0.721,0.148c0.225,0.097,0.42,0.229,0.588,0.396
			c0.168,0.167,0.299,0.363,0.398,0.586c0.098,0.228,0.15,0.467,0.15,0.718C122.285,125.764,122.238,126.009,122.139,126.235z"/>
		<path d="M126.232,124.189c0.164-0.166,0.361-0.299,0.588-0.396c0.225-0.099,0.463-0.148,0.719-0.148
			c0.289,0,0.564,0.051,0.816,0.153c0.254,0.103,0.467,0.271,0.639,0.511h1.557c-0.15-0.363-0.336-0.674-0.561-0.932
			c-0.219-0.258-0.463-0.469-0.729-0.635c-0.264-0.167-0.545-0.285-0.844-0.363c-0.293-0.072-0.59-0.111-0.879-0.111
			c-0.453,0-0.871,0.086-1.266,0.256c-0.389,0.17-0.73,0.399-1.021,0.688s-0.52,0.628-0.688,1.02s-0.25,0.814-0.25,1.262
			c0,0.451,0.082,0.871,0.25,1.264c0.168,0.392,0.396,0.731,0.688,1.021c0.291,0.287,0.633,0.516,1.021,0.684
			c0.395,0.172,0.813,0.258,1.266,0.258c0.305,0,0.605-0.039,0.902-0.117c0.289-0.08,0.568-0.201,0.828-0.368
			s0.498-0.382,0.717-0.643c0.219-0.26,0.402-0.568,0.549-0.923h-1.541c-0.156,0.224-0.361,0.388-0.615,0.503
			c-0.252,0.113-0.535,0.171-0.84,0.171c-0.256,0-0.494-0.047-0.719-0.146c-0.227-0.099-0.424-0.233-0.588-0.399
			c-0.168-0.166-0.295-0.363-0.396-0.585c-0.098-0.227-0.148-0.468-0.148-0.72c0-0.251,0.051-0.49,0.148-0.718
			C125.938,124.553,126.064,124.356,126.232,124.189z"/>
		<rect x="131.309" y="122.541" width="1.373" height="5.93"/>
		<path d="M131.996,120.158c-0.236,0-0.438,0.083-0.604,0.248c-0.168,0.166-0.25,0.376-0.25,0.631c0,0.235,0.082,0.438,0.25,0.604
			c0.166,0.166,0.367,0.249,0.604,0.249c0.25,0,0.465-0.083,0.629-0.249c0.166-0.165,0.248-0.368,0.248-0.604
			c0-0.255-0.082-0.465-0.248-0.631C132.461,120.241,132.246,120.158,131.996,120.158z"/>
		<path d="M138.662,122.969c-0.104-0.097-0.229-0.185-0.369-0.269c-0.145-0.082-0.295-0.154-0.455-0.217
			c-0.164-0.065-0.332-0.114-0.506-0.155c-0.174-0.039-0.348-0.06-0.521-0.06c-0.451,0-0.871,0.086-1.262,0.256
			c-0.393,0.17-0.732,0.399-1.02,0.688c-0.291,0.288-0.52,0.628-0.689,1.02c-0.172,0.392-0.254,0.814-0.254,1.262
			c0,0.451,0.082,0.871,0.254,1.264c0.17,0.392,0.398,0.731,0.689,1.021c0.287,0.287,0.627,0.516,1.02,0.684
			c0.391,0.172,0.811,0.258,1.262,0.258s0.871-0.083,1.264-0.249c0.391-0.166,0.732-0.392,1.025-0.683
			c0.293-0.288,0.521-0.628,0.689-1.021c0.164-0.39,0.246-0.814,0.246-1.274v-5.323h-1.373V122.969z M138.512,126.213
			c-0.098,0.222-0.232,0.419-0.396,0.585c-0.166,0.166-0.359,0.301-0.588,0.399c-0.223,0.099-0.463,0.146-0.717,0.146
			s-0.492-0.047-0.717-0.146c-0.227-0.099-0.42-0.233-0.586-0.399c-0.168-0.166-0.299-0.363-0.398-0.585
			c-0.098-0.227-0.15-0.468-0.15-0.72c0-0.251,0.053-0.49,0.15-0.718c0.1-0.223,0.23-0.419,0.398-0.586
			c0.166-0.166,0.359-0.299,0.586-0.396c0.225-0.099,0.463-0.148,0.717-0.148s0.494,0.05,0.717,0.148
			c0.229,0.097,0.422,0.229,0.588,0.396c0.164,0.167,0.299,0.363,0.396,0.586c0.098,0.228,0.15,0.467,0.15,0.718
			C138.662,125.745,138.609,125.986,138.512,126.213z"/>
		<path d="M146.363,123.212c-0.291-0.288-0.631-0.518-1.021-0.688c-0.389-0.17-0.813-0.256-1.264-0.256
			c-0.449,0-0.871,0.086-1.262,0.256c-0.393,0.17-0.73,0.399-1.027,0.688c-0.291,0.288-0.523,0.628-0.691,1.02
			c-0.17,0.392-0.258,0.814-0.258,1.262c0,0.451,0.078,0.871,0.232,1.264c0.158,0.392,0.373,0.733,0.652,1.026
			c0.283,0.291,0.619,0.521,1.018,0.688c0.402,0.166,0.846,0.249,1.336,0.249c0.686,0,1.305-0.194,1.85-0.581v0.332h1.377v-2.978
			c0-0.447-0.088-0.87-0.254-1.262C146.877,123.84,146.65,123.5,146.363,123.212z M145.787,126.235
			c-0.096,0.226-0.229,0.422-0.398,0.589c-0.172,0.167-0.369,0.293-0.596,0.384c-0.223,0.091-0.465,0.135-0.719,0.135
			s-0.496-0.047-0.719-0.146c-0.229-0.099-0.426-0.233-0.59-0.399c-0.166-0.166-0.301-0.363-0.4-0.585
			c-0.1-0.227-0.148-0.468-0.148-0.72c0-0.251,0.049-0.49,0.148-0.718c0.1-0.223,0.234-0.419,0.4-0.586
			c0.164-0.166,0.361-0.299,0.59-0.396c0.223-0.099,0.465-0.148,0.719-0.148s0.496,0.05,0.719,0.148
			c0.227,0.097,0.424,0.229,0.59,0.396c0.166,0.167,0.299,0.363,0.396,0.586c0.102,0.228,0.148,0.467,0.148,0.718
			C145.928,125.764,145.881,126.009,145.787,126.235z"/>
		<path d="M153.15,122.969c-0.104-0.097-0.225-0.185-0.367-0.269c-0.143-0.082-0.295-0.154-0.457-0.217
			c-0.16-0.065-0.33-0.114-0.502-0.155c-0.176-0.039-0.35-0.06-0.525-0.06c-0.449,0-0.869,0.086-1.26,0.256
			c-0.393,0.17-0.729,0.399-1.021,0.688c-0.289,0.288-0.518,0.628-0.688,1.02s-0.256,0.814-0.256,1.262
			c0,0.451,0.086,0.871,0.256,1.264c0.17,0.392,0.398,0.731,0.688,1.021c0.293,0.287,0.629,0.516,1.021,0.684
			c0.391,0.172,0.811,0.258,1.26,0.258c0.453,0,0.873-0.083,1.266-0.249c0.389-0.166,0.732-0.392,1.023-0.683
			c0.295-0.288,0.523-0.628,0.688-1.021c0.168-0.39,0.25-0.814,0.25-1.274v-5.323h-1.375V122.969z M153.002,126.213
			c-0.1,0.222-0.229,0.419-0.396,0.585c-0.166,0.166-0.361,0.301-0.586,0.399c-0.229,0.099-0.465,0.146-0.721,0.146
			c-0.25,0-0.49-0.047-0.715-0.146c-0.227-0.099-0.42-0.233-0.586-0.399c-0.164-0.166-0.301-0.363-0.4-0.585
			c-0.096-0.227-0.146-0.468-0.146-0.72c0-0.251,0.051-0.49,0.146-0.718c0.1-0.223,0.236-0.419,0.4-0.586
			c0.166-0.166,0.359-0.299,0.586-0.396c0.225-0.099,0.465-0.148,0.715-0.148c0.256,0,0.492,0.05,0.721,0.148
			c0.225,0.097,0.42,0.229,0.586,0.396c0.168,0.167,0.297,0.363,0.396,0.586c0.102,0.228,0.148,0.467,0.148,0.718
			C153.15,125.745,153.104,125.986,153.002,126.213z"/>
	</g>
</g>
</svg>
