<?xml version="1.0" encoding="utf-8"?>
<!DOCTYPE svg PUBLIC "-//W3C//DTD SVG 1.1//EN" "http://www.w3.org/Graphics/SVG/1.1/DTD/svg11.dtd">
<svg version="1.1" id="Capa_1" xmlns="http://www.w3.org/2000/svg" xmlns:xlink="http://www.w3.org/1999/xlink" x="0px" y="0px"
 width="200px" height="150px" viewBox="0 0 200 150" enable-background="new 0 0 200 150" xml:space="preserve">
<g>
<rect x="1.874" y="104.024" fill="#4EAED9" width="194.245" height="1.014"/>
<g>
<path fill="#868686" d="M7.273,109.687v6.509H6.424v-6.509H7.273z"/>
<path fill="#868686" d="M8.81,112.786c0-0.492-0.009-0.879-0.039-1.265h0.753l0.048,0.772h0.02
c0.231-0.435,0.772-0.869,1.545-0.869c0.647,0,1.651,0.387,1.651,1.989v2.781h-0.85v-2.694c0-0.754-0.28-1.381-1.082-1.381
c-0.55,0-0.985,0.396-1.139,0.869c-0.039,0.106-0.059,0.251-0.059,0.396v2.81H8.81V112.786z"/>
<path fill="#868686" d="M14.055,115.336c0.261,0.154,0.705,0.328,1.129,0.328c0.609,0,0.899-0.299,0.899-0.695
c0-0.405-0.241-0.618-0.859-0.85c-0.85-0.31-1.246-0.763-1.246-1.323c0-0.753,0.618-1.371,1.613-1.371
c0.474,0,0.888,0.126,1.139,0.289l-0.203,0.618c-0.184-0.116-0.521-0.279-0.957-0.279c-0.502,0-0.772,0.289-0.772,0.637
c0,0.387,0.271,0.561,0.879,0.802c0.801,0.3,1.226,0.705,1.226,1.4c0,0.831-0.646,1.41-1.738,1.41
c-0.513,0-0.985-0.135-1.313-0.328L14.055,115.336z"/>
<path fill="#868686" d="M19.021,110.401v1.12h1.217v0.647h-1.217v2.52c0,0.58,0.165,0.908,0.637,0.908
c0.232,0,0.368-0.02,0.493-0.058l0.039,0.647c-0.164,0.058-0.424,0.115-0.753,0.115c-0.396,0-0.715-0.135-0.917-0.357
c-0.232-0.261-0.329-0.676-0.329-1.227v-2.549h-0.724v-0.647h0.724v-0.87L19.021,110.401z"/>
<path fill="#868686" d="M22.141,110.207c0,0.29-0.203,0.522-0.541,0.522c-0.309,0-0.511-0.232-0.511-0.522
c0-0.289,0.212-0.53,0.531-0.53C21.929,109.677,22.141,109.908,22.141,110.207z M21.194,116.195v-4.674h0.85v4.674H21.194z"/>
<path fill="#868686" d="M24.479,110.401v1.12h1.217v0.647h-1.217v2.52c0,0.58,0.164,0.908,0.638,0.908
c0.232,0,0.366-0.02,0.492-0.058l0.039,0.647c-0.165,0.058-0.426,0.115-0.753,0.115c-0.396,0-0.715-0.135-0.917-0.357
c-0.231-0.261-0.329-0.676-0.329-1.227v-2.549h-0.725v-0.647h0.725v-0.87L24.479,110.401z"/>
<path fill="#868686" d="M30.564,114.911c0,0.492,0.009,0.917,0.038,1.284H29.85l-0.048-0.763h-0.02
c-0.212,0.377-0.715,0.869-1.545,0.869c-0.733,0-1.612-0.415-1.612-2.048v-2.732h0.849v2.578c0,0.889,0.28,1.497,1.043,1.497
c0.57,0,0.965-0.396,1.12-0.782c0.048-0.116,0.078-0.271,0.078-0.435v-2.858h0.85V114.911z"/>
<path fill="#868686" d="M32.999,110.401v1.12h1.218v0.647h-1.218v2.52c0,0.58,0.165,0.908,0.638,0.908
c0.232,0,0.367-0.02,0.493-0.058l0.039,0.647c-0.165,0.058-0.425,0.115-0.753,0.115c-0.396,0-0.715-0.135-0.917-0.357
c-0.232-0.261-0.329-0.676-0.329-1.227v-2.549h-0.724v-0.647h0.724v-0.87L32.999,110.401z"/>
<path fill="#868686" d="M39.346,113.82c0,1.729-1.208,2.481-2.328,2.481c-1.255,0-2.24-0.928-2.24-2.405
c0-1.555,1.033-2.472,2.318-2.472C38.438,111.425,39.346,112.4,39.346,113.82z M35.646,113.868c0,1.023,0.58,1.796,1.41,1.796
c0.812,0,1.42-0.763,1.42-1.815c0-0.792-0.396-1.787-1.401-1.787C36.082,112.062,35.646,112.989,35.646,113.868z"/>
<path fill="#868686" d="M47.982,113.337c-0.049-0.908-0.107-2.009-0.107-2.811h-0.019c-0.232,0.754-0.493,1.574-0.822,2.473
l-1.149,3.158h-0.637l-1.062-3.101c-0.309-0.927-0.561-1.758-0.744-2.53h-0.02c-0.019,0.812-0.067,1.893-0.125,2.878l-0.174,2.791
h-0.802l0.454-6.509h1.072l1.11,3.147c0.271,0.802,0.483,1.517,0.657,2.192h0.019c0.174-0.656,0.406-1.371,0.695-2.192l1.16-3.147
h1.072l0.405,6.509h-0.831L47.982,113.337z"/>
<path fill="#868686" d="M50.766,114.013c0.02,1.149,0.744,1.623,1.604,1.623c0.608,0,0.985-0.106,1.294-0.241l0.154,0.607
c-0.299,0.136-0.821,0.3-1.565,0.3c-1.438,0-2.298-0.956-2.298-2.366s0.832-2.511,2.192-2.511c1.536,0,1.932,1.333,1.932,2.192
c0,0.174-0.01,0.299-0.028,0.396H50.766z M53.258,113.404c0.009-0.531-0.222-1.371-1.179-1.371c-0.869,0-1.236,0.782-1.304,1.371
H53.258z"/>
<path fill="#868686" d="M55.5,111.521l0.667,1.004c0.184,0.261,0.328,0.492,0.482,0.753h0.02c0.154-0.27,0.309-0.511,0.473-0.763
l0.647-0.994h0.927l-1.593,2.26l1.632,2.414h-0.956l-0.695-1.053c-0.184-0.271-0.338-0.531-0.503-0.811h-0.019
c-0.155,0.279-0.309,0.531-0.492,0.811l-0.676,1.053h-0.937l1.661-2.386l-1.584-2.288H55.5z"/>
<path fill="#868686" d="M60.523,110.207c0,0.29-0.203,0.522-0.541,0.522c-0.309,0-0.512-0.232-0.512-0.522
c0-0.289,0.213-0.53,0.531-0.53C60.311,109.677,60.523,109.908,60.523,110.207z M59.577,116.195v-4.674h0.85v4.674H59.577z"/>
<path fill="#868686" d="M65.168,116.031c-0.222,0.106-0.714,0.271-1.342,0.271c-1.41,0-2.327-0.956-2.327-2.386
c0-1.438,0.984-2.491,2.511-2.491c0.502,0,0.946,0.126,1.178,0.251l-0.193,0.647c-0.203-0.107-0.522-0.223-0.985-0.223
c-1.072,0-1.652,0.802-1.652,1.768c0,1.082,0.696,1.748,1.623,1.748c0.483,0,0.801-0.116,1.043-0.222L65.168,116.031z"/>
<path fill="#868686" d="M69.448,115.075c0,0.406,0.02,0.802,0.067,1.12h-0.762l-0.068-0.589h-0.028
c-0.261,0.367-0.764,0.695-1.43,0.695c-0.945,0-1.43-0.666-1.43-1.343c0-1.13,1.005-1.748,2.812-1.738v-0.097
c0-0.377-0.107-1.081-1.063-1.071c-0.444,0-0.899,0.125-1.227,0.348l-0.193-0.57c0.387-0.241,0.956-0.405,1.545-0.405
c1.43,0,1.777,0.976,1.777,1.902V115.075z M68.627,113.81c-0.927-0.019-1.98,0.146-1.98,1.054c0,0.56,0.368,0.811,0.792,0.811
c0.618,0,1.014-0.387,1.149-0.782c0.03-0.097,0.039-0.193,0.039-0.27V113.81z"/>
<path fill="#868686" d="M70.821,112.786c0-0.492-0.01-0.879-0.039-1.265h0.753l0.048,0.772h0.019
c0.232-0.435,0.773-0.869,1.545-0.869c0.647,0,1.651,0.387,1.651,1.989v2.781h-0.85v-2.694c0-0.754-0.279-1.381-1.081-1.381
c-0.551,0-0.986,0.396-1.14,0.869c-0.039,0.106-0.058,0.251-0.058,0.396v2.81h-0.85V112.786z"/>
<path fill="#868686" d="M80.413,113.82c0,1.729-1.207,2.481-2.327,2.481c-1.257,0-2.241-0.928-2.241-2.405
c0-1.555,1.033-2.472,2.317-2.472C79.505,111.425,80.413,112.4,80.413,113.82z M76.714,113.868c0,1.023,0.58,1.796,1.41,1.796
c0.812,0,1.42-0.763,1.42-1.815c0-0.792-0.396-1.787-1.4-1.787C77.148,112.062,76.714,112.989,76.714,113.868z"/>
<path fill="#868686" d="M83.534,113.047c0-0.599-0.019-1.081-0.038-1.525h0.753l0.048,0.802h0.02
c0.339-0.57,0.898-0.898,1.661-0.898c1.14,0,1.99,0.956,1.99,2.366c0,1.68-1.033,2.511-2.135,2.511
c-0.618,0-1.158-0.271-1.438-0.733h-0.021v2.54h-0.84V113.047z M84.374,114.293c0,0.126,0.01,0.241,0.04,0.348
c0.154,0.589,0.665,0.995,1.274,0.995c0.898,0,1.419-0.734,1.419-1.807c0-0.927-0.491-1.729-1.391-1.729
c-0.579,0-1.129,0.405-1.284,1.043c-0.029,0.106-0.059,0.232-0.059,0.338V114.293z"/>
<path fill="#868686" d="M92.315,115.075c0,0.406,0.02,0.802,0.066,1.12H91.62l-0.067-0.589h-0.029
c-0.261,0.367-0.763,0.695-1.43,0.695c-0.946,0-1.43-0.666-1.43-1.343c0-1.13,1.005-1.748,2.811-1.738v-0.097
c0-0.377-0.106-1.081-1.063-1.071c-0.444,0-0.898,0.125-1.226,0.348l-0.194-0.57c0.388-0.241,0.957-0.405,1.546-0.405
c1.43,0,1.777,0.976,1.777,1.902V115.075z M91.494,113.81c-0.927-0.019-1.98,0.146-1.98,1.054c0,0.56,0.367,0.811,0.793,0.811
c0.618,0,1.015-0.387,1.148-0.782c0.029-0.097,0.039-0.193,0.039-0.27V113.81z"/>
<path fill="#868686" d="M93.688,112.979c0-0.551-0.01-1.023-0.038-1.458h0.743l0.039,0.927h0.028
c0.213-0.628,0.734-1.023,1.305-1.023c0.086,0,0.154,0.01,0.231,0.019v0.802c-0.087-0.019-0.174-0.019-0.29-0.019
c-0.599,0-1.023,0.444-1.14,1.081c-0.02,0.116-0.028,0.261-0.028,0.396v2.491h-0.851V112.979z"/>
<path fill="#868686" d="M100.082,115.075c0,0.406,0.02,0.802,0.067,1.12h-0.763l-0.067-0.589H99.29
c-0.261,0.367-0.763,0.695-1.429,0.695c-0.946,0-1.43-0.666-1.43-1.343c0-1.13,1.004-1.748,2.811-1.738v-0.097
c0-0.377-0.106-1.081-1.063-1.071c-0.444,0-0.898,0.125-1.227,0.348l-0.193-0.57c0.387-0.241,0.957-0.405,1.546-0.405
c1.429,0,1.776,0.976,1.776,1.902V115.075z M99.262,113.81c-0.927-0.019-1.98,0.146-1.98,1.054c0,0.56,0.367,0.811,0.793,0.811
c0.618,0,1.014-0.387,1.148-0.782c0.029-0.097,0.039-0.193,0.039-0.27V113.81z"/>
<path fill="#868686" d="M103.503,109.339h0.85v6.856h-0.85V109.339z"/>
<path fill="#868686" d="M109.066,115.075c0,0.406,0.02,0.802,0.067,1.12h-0.762l-0.068-0.589h-0.029
c-0.26,0.367-0.763,0.695-1.43,0.695c-0.945,0-1.429-0.666-1.429-1.343c0-1.13,1.005-1.748,2.811-1.738v-0.097
c0-0.377-0.106-1.081-1.063-1.071c-0.444,0-0.898,0.125-1.227,0.348l-0.193-0.57c0.387-0.241,0.956-0.405,1.545-0.405
c1.43,0,1.777,0.976,1.777,1.902V115.075z M108.246,113.81c-0.928-0.019-1.98,0.146-1.98,1.054c0,0.56,0.367,0.811,0.792,0.811
c0.618,0,1.015-0.387,1.149-0.782c0.029-0.097,0.039-0.193,0.039-0.27V113.81z"/>
<path fill="#868686" d="M117.056,115.992c-0.3,0.154-0.927,0.31-1.719,0.31c-1.836,0-3.207-1.159-3.207-3.303
c0-2.048,1.381-3.419,3.399-3.419c0.803,0,1.324,0.174,1.545,0.29l-0.211,0.686c-0.31-0.154-0.763-0.271-1.305-0.271
c-1.526,0-2.54,0.976-2.54,2.685c0,1.604,0.918,2.617,2.492,2.617c0.521,0,1.043-0.105,1.381-0.271L117.056,115.992z"/>
<path fill="#868686" d="M122.215,113.82c0,1.729-1.207,2.481-2.328,2.481c-1.255,0-2.24-0.928-2.24-2.405
c0-1.555,1.033-2.472,2.318-2.472C121.307,111.425,122.215,112.4,122.215,113.82z M118.516,113.868
c0,1.023,0.579,1.796,1.41,1.796c0.812,0,1.419-0.763,1.419-1.815c0-0.792-0.396-1.787-1.399-1.787
C118.95,112.062,118.516,112.989,118.516,113.868z"/>
<path fill="#868686" d="M123.288,112.786c0-0.492-0.02-0.879-0.038-1.265h0.743l0.039,0.763h0.028
c0.261-0.444,0.695-0.859,1.478-0.859c0.628,0,1.111,0.387,1.314,0.937h0.019c0.145-0.271,0.339-0.464,0.531-0.608
c0.28-0.213,0.579-0.328,1.023-0.328c0.628,0,1.545,0.405,1.545,2.027v2.743h-0.83v-2.636c0-0.908-0.338-1.439-1.014-1.439
c-0.493,0-0.859,0.357-1.015,0.763c-0.038,0.126-0.067,0.271-0.067,0.425v2.888h-0.831v-2.801c0-0.743-0.327-1.274-0.976-1.274
c-0.521,0-0.917,0.425-1.052,0.85c-0.049,0.116-0.067,0.271-0.067,0.416v2.81h-0.831V112.786z"/>
<path fill="#868686" d="M131.345,113.047c0-0.599-0.019-1.081-0.038-1.525h0.753l0.049,0.802h0.019
c0.339-0.57,0.898-0.898,1.662-0.898c1.139,0,1.989,0.956,1.989,2.366c0,1.68-1.034,2.511-2.135,2.511
c-0.618,0-1.158-0.271-1.438-0.733h-0.02v2.54h-0.841V113.047z M132.186,114.293c0,0.126,0.01,0.241,0.039,0.348
c0.154,0.589,0.666,0.995,1.274,0.995c0.898,0,1.419-0.734,1.419-1.807c0-0.927-0.492-1.729-1.39-1.729
c-0.58,0-1.13,0.405-1.285,1.043c-0.029,0.106-0.058,0.232-0.058,0.338V114.293z"/>
<path fill="#868686" d="M137.314,114.013c0.021,1.149,0.745,1.623,1.604,1.623c0.609,0,0.986-0.106,1.295-0.241l0.154,0.607
c-0.3,0.136-0.82,0.3-1.564,0.3c-1.439,0-2.298-0.956-2.298-2.366s0.83-2.511,2.191-2.511c1.536,0,1.932,1.333,1.932,2.192
c0,0.174-0.009,0.299-0.029,0.396H137.314z M139.807,113.404c0.011-0.531-0.222-1.371-1.178-1.371
c-0.87,0-1.236,0.782-1.304,1.371H139.807z"/>
<path fill="#868686" d="M142.706,110.401v1.12h1.217v0.647h-1.217v2.52c0,0.58,0.164,0.908,0.637,0.908
c0.232,0,0.367-0.02,0.493-0.058l0.038,0.647c-0.164,0.058-0.424,0.115-0.753,0.115c-0.396,0-0.715-0.135-0.917-0.357
c-0.232-0.261-0.329-0.676-0.329-1.227v-2.549h-0.724v-0.647h0.724v-0.87L142.706,110.401z"/>
<path fill="#868686" d="M145.826,110.207c0,0.29-0.203,0.522-0.541,0.522c-0.309,0-0.512-0.232-0.512-0.522
c0-0.289,0.213-0.53,0.531-0.53C145.613,109.677,145.826,109.908,145.826,110.207z M144.88,116.195v-4.674h0.85v4.674H144.88z"/>
<path fill="#868686" d="M148.164,110.401v1.12h1.217v0.647h-1.217v2.52c0,0.58,0.164,0.908,0.638,0.908
c0.231,0,0.366-0.02,0.492-0.058l0.039,0.647c-0.165,0.058-0.426,0.115-0.754,0.115c-0.396,0-0.715-0.135-0.917-0.357
c-0.232-0.261-0.329-0.676-0.329-1.227v-2.549h-0.724v-0.647h0.724v-0.87L148.164,110.401z"/>
<path fill="#868686" d="M151.284,110.207c0,0.29-0.203,0.522-0.54,0.522c-0.31,0-0.512-0.232-0.512-0.522
c0-0.289,0.212-0.53,0.531-0.53C151.072,109.677,151.284,109.908,151.284,110.207z M150.338,116.195v-4.674h0.851v4.674H150.338z"
/>
<path fill="#868686" d="M152.927,111.521l0.918,2.617c0.153,0.435,0.28,0.82,0.376,1.207h0.029
c0.105-0.387,0.241-0.772,0.396-1.207l0.907-2.617h0.889l-1.835,4.674h-0.812l-1.777-4.674H152.927z"/>
<path fill="#868686" d="M158.192,110.207c0,0.29-0.203,0.522-0.542,0.522c-0.309,0-0.511-0.232-0.511-0.522
c0-0.289,0.212-0.53,0.531-0.53C157.979,109.677,158.192,109.908,158.192,110.207z M157.245,116.195v-4.674h0.85v4.674H157.245z"
/>
<path fill="#868686" d="M163.532,109.339v5.649c0,0.415,0.021,0.889,0.039,1.207h-0.753l-0.038-0.811h-0.029
c-0.251,0.521-0.812,0.917-1.574,0.917c-1.131,0-2.009-0.956-2.009-2.376c-0.01-1.555,0.965-2.501,2.096-2.501
c0.724,0,1.197,0.338,1.41,0.705h0.019v-2.791H163.532z M162.692,113.424c0-0.106-0.01-0.251-0.038-0.357
c-0.126-0.531-0.589-0.976-1.227-0.976c-0.879,0-1.4,0.772-1.4,1.797c0,0.946,0.474,1.729,1.381,1.729
c0.57,0,1.092-0.387,1.246-1.015c0.028-0.115,0.038-0.231,0.038-0.366V113.424z"/>
<path fill="#868686" d="M168.238,115.075c0,0.406,0.02,0.802,0.067,1.12h-0.763l-0.067-0.589h-0.029
c-0.261,0.367-0.763,0.695-1.429,0.695c-0.947,0-1.43-0.666-1.43-1.343c0-1.13,1.004-1.748,2.811-1.738v-0.097
c0-0.377-0.106-1.081-1.063-1.071c-0.444,0-0.898,0.125-1.228,0.348l-0.192-0.57c0.387-0.241,0.956-0.405,1.546-0.405
c1.429,0,1.776,0.976,1.776,1.902V115.075z M167.417,113.81c-0.927-0.019-1.979,0.146-1.979,1.054c0,0.56,0.367,0.811,0.792,0.811
c0.618,0,1.014-0.387,1.149-0.782c0.028-0.097,0.038-0.193,0.038-0.27V113.81z"/>
<path fill="#868686" d="M173.638,109.339v5.649c0,0.415,0.021,0.889,0.039,1.207h-0.754l-0.038-0.811h-0.028
c-0.251,0.521-0.813,0.917-1.574,0.917c-1.131,0-2.01-0.956-2.01-2.376c-0.01-1.555,0.966-2.501,2.097-2.501
c0.724,0,1.196,0.338,1.41,0.705h0.019v-2.791H173.638z M172.798,113.424c0-0.106-0.01-0.251-0.039-0.357
c-0.125-0.531-0.589-0.976-1.226-0.976c-0.879,0-1.4,0.772-1.4,1.797c0,0.946,0.473,1.729,1.38,1.729
c0.57,0,1.093-0.387,1.246-1.015c0.029-0.115,0.039-0.231,0.039-0.366V113.424z"/>
<path fill="#868686" d="M178.189,114.148l-0.677,2.047h-0.869l2.222-6.509h1.005l2.221,6.509h-0.898l-0.694-2.047H178.189z
 M180.333,113.491l-0.647-1.873c-0.145-0.425-0.241-0.812-0.337-1.188h-0.021c-0.097,0.377-0.193,0.782-0.327,1.179l-0.638,1.883
H180.333z"/>
<path fill="#868686" d="M182.817,115.693c0-0.348,0.241-0.608,0.58-0.608c0.337,0,0.569,0.251,0.569,0.608
c0,0.348-0.232,0.608-0.59,0.608C183.048,116.302,182.817,116.041,182.817,115.693z"/>
<path fill="#868686" d="M189.588,115.992c-0.299,0.154-0.928,0.31-1.719,0.31c-1.836,0-3.207-1.159-3.207-3.303
c0-2.048,1.381-3.419,3.399-3.419c0.802,0,1.324,0.174,1.545,0.29l-0.212,0.686c-0.31-0.154-0.763-0.271-1.304-0.271
c-1.526,0-2.54,0.976-2.54,2.685c0,1.604,0.918,2.617,2.492,2.617c0.521,0,1.042-0.105,1.381-0.271L189.588,115.992z"/>
<path fill="#868686" d="M190.419,115.693c0-0.348,0.242-0.608,0.58-0.608s0.569,0.251,0.569,0.608
c0,0.348-0.231,0.608-0.588,0.608C190.651,116.302,190.419,116.041,190.419,115.693z"/>
</g>
<g>
<path fill="#868686" d="M42.62,93.197c-0.51-0.006-4.009-0.205-4.147-4.256V58.597v-1.021h-5.191h-5.49v1.021h1.343
c0.51,0.007,4.009,0.206,4.147,4.256v30.345v1.021h5.191h5.49v-1.021H42.62z"/>
<path fill="#868686" d="M91.53,93.309c-0.48-0.006-3.784-0.206-3.915-4.257V57.687h-2.451h-2.451H81.83L68.658,87.338
l-13.57-29.651h-1.145h-3.671h-1.52H43.26v1.021h1.344c0.509,0.007,3.859,0.206,3.998,4.256c0.019,0.55,0.071,0.946,0.15,1.218
v29.126v1.021h5.191h5.49v-1.021h-1.344c-0.509-0.006-4.009-0.199-4.146-4.25V66.036L67.026,94.33h1.432l14.255-30.643v29.621
v1.021h4.902h5.184v-1.021H91.53z"/>
<path fill="#868686" d="M121.818,90.068c-4.673,2.349-8.486,2.844-11.487,2.473c-7.453-0.923-10.168-5.642-11.787-10.778
c-0.594-1.889-0.921-3.901-0.921-5.932c0-4.471,0.819-8.602,3.03-11.631c2.247-3.08,5.934-5.021,11.663-5.021
c3.112,0,6.998,0.734,9.374,2.606c2.13,1.677,3.227,4.116,3.781,6.928h0.923v-9.968c-4.229-0.843-8.542-1.409-12.541-1.523
c-8.023-0.229-15.301,1.812-18.867,7.457c-1.855,2.935-2.914,6.813-2.914,11.754c0,12.236,8.051,19.169,18.687,19.169
c5.046,0,10.624-1.934,15.095-5.095v-2.664l-0.011-0.373C124.892,88.314,123.585,89.18,121.818,90.068z"/>
<circle fill="none" stroke="#B5983A" stroke-width="0.447" stroke-miterlimit="10" cx="150.583" cy="75.903" r="19.284"/>
<path fill="#868686" d="M150.583,95.522c-10.818,0-19.619-8.801-19.619-19.619s8.801-19.619,19.619-19.619
c10.817,0,19.618,8.801,19.618,19.619S161.4,95.522,150.583,95.522z M150.583,56.954c-10.448,0-18.949,8.5-18.949,18.949
c0,10.448,8.501,18.949,18.949,18.949c10.447,0,18.948-8.501,18.948-18.949C169.531,65.455,161.03,56.954,150.583,56.954z"/>
<path fill="#868686" d="M150.583,95.188c-10.01,0-18.234-7.624-19.19-17.381l-1.46-0.215c0.235,11.576,9.686,20.89,21.319,20.89
c4.181,0,8.076-1.207,11.368-3.285l-2.011-2.817C157.687,94.16,154.255,95.188,150.583,95.188z"/>
<path fill="#4EAED9" d="M139.513,85.01c-14.778,0-26.758-11.979-26.758-26.757c0-7.437,3.036-14.163,7.933-19.012
c-6.07,5.063-9.936,12.682-9.936,21.206c0,15.246,12.357,27.603,27.603,27.603c14.366,0,26.166-10.976,27.479-24.999
C163.57,75.538,152.651,85.01,139.513,85.01z"/>
<path fill="#4EAED9" d="M138.191,78.112c-9.312,0-16.949-7.143-17.742-16.25c-0.046,0.516-0.073,1.038-0.073,1.566
c0,9.839,7.976,17.815,17.815,17.815c9.839,0,17.815-7.977,17.815-17.815c0-0.528-0.027-1.05-0.072-1.566
C155.141,70.969,147.502,78.112,138.191,78.112z"/>
</g>
</g>
</svg>
