<?xml version="1.0" encoding="utf-8"?><!DOCTYPE svg PUBLIC "-//W3C//DTD SVG 1.1//EN" "http://www.w3.org/Graphics/SVG/1.1/DTD/svg11.dtd"><svg version="1.1" id="Capa_1" xmlns="http://www.w3.org/2000/svg" xmlns:xlink="http://www.w3.org/1999/xlink" x="0px" y="0px" width="150px" height="100px" viewBox="0 0 150 100" enable-background="new 0 0 150 100" xml:space="preserve"><g><path fill="#139A95" d="M37.294,85.028v-9.629h-3.396v-1.634h8.396v1.634h-3.381v9.629H37.294z"/><path fill="#139A95" d="M45.404,79.293h1.891c1.362,0,2.035-0.978,2.035-1.955c0-0.961-0.673-1.938-2.035-1.938h-2.483v9.581h-1.602V73.765h4.085c2.436,0,3.653,1.794,3.653,3.573c0,1.586-0.977,3.092-2.9,3.429l3.541,4.214H49.49l-4.086-4.918V79.293z"/><path fill="#139A95" d="M57.968,81.68h-4.021c-0.433,1.025-0.993,2.371-1.346,3.3h-1.747l4.502-11.359h1.186l4.502,11.359h-1.73L57.968,81.68z M54.555,80.158h2.788l-1.378-3.957L54.555,80.158z"/><path fill="#139A95" d="M61.384,84.98V73.749l1.25,0.016l5.463,7.899v-7.899h1.602V84.98h-1.282l-5.416-7.834v7.834H61.384z"/><path fill="#139A95" d="M77.089,76.665c-0.225-1.009-1.314-1.442-2.292-1.426c-0.753,0.016-1.586,0.272-2.035,0.849c-0.224,0.289-0.304,0.657-0.272,1.042c0.08,1.153,1.346,1.298,2.548,1.41c1.538,0.192,3.444,0.593,3.877,2.387c0.048,0.241,0.08,0.513,0.08,0.737c0,2.163-2.147,3.413-4.166,3.413c-1.73,0-3.829-1.025-4.038-3.028l-0.016-0.304l1.634-0.032l0.016,0.24v-0.064c0.112,1.042,1.378,1.586,2.419,1.586c1.202,0,2.515-0.673,2.515-1.827c0-0.112-0.016-0.24-0.048-0.384c-0.192-0.85-1.346-0.994-2.467-1.106c-1.747-0.176-3.797-0.561-3.974-2.9v0.016c-0.064-0.753,0.128-1.506,0.609-2.131c0.753-0.977,2.099-1.49,3.397-1.49c1.73,0,3.524,0.897,3.813,2.948L77.089,76.665z"/><path fill="#139A95" d="M84.078,73.765c2.419,0,3.637,1.875,3.637,3.749s-1.218,3.733-3.637,3.733H81.61v3.733h-1.634V73.765H84.078z M84.078,79.645c1.362,0,2.035-1.057,2.035-2.115c0-1.073-0.673-2.131-2.035-2.131H81.61v4.246H84.078z"/><path fill="#139A95" d="M93.773,81.68h-4.021c-0.433,1.025-0.993,2.371-1.346,3.3h-1.747l4.502-11.359h1.186l4.502,11.359h-1.73L93.773,81.68z M90.36,80.158h2.788l-1.377-3.957L90.36,80.158z"/><path fill="#139A95" d="M99.4,79.293h1.891c1.362,0,2.035-0.978,2.035-1.955c0-0.961-0.673-1.938-2.035-1.938h-2.483v9.581h-1.602V73.765h4.085c2.436,0,3.653,1.794,3.653,3.573c0,1.586-0.977,3.092-2.9,3.429l3.541,4.214h-2.099L99.4,80.062V79.293z"/><path fill="#139A95" d="M107.526,83.362h5.207v1.618h-6.841V73.781h6.825v1.618h-5.191v3.156h5.079v1.634h-5.079V83.362z"/><path fill="#139A95" d="M113.617,84.98V73.749l1.25,0.016l5.463,7.899v-7.899h1.602V84.98h-1.282l-5.416-7.834v7.834H113.617z"/><path fill="#139A95" d="M126.021,85.028v-9.629h-3.396v-1.634h8.396v1.634h-3.381v9.629H126.021z"/><path fill="#139A95" d="M133.49,83.362h5.207v1.618h-6.841V73.781h6.825v1.618h-5.191v3.156h5.079v1.634h-5.079V83.362z"/><path fill="#139A95" d="M145.702,76.665c-0.225-1.009-1.314-1.442-2.292-1.426c-0.753,0.016-1.586,0.272-2.035,0.849c-0.224,0.289-0.304,0.657-0.272,1.042c0.081,1.153,1.346,1.298,2.548,1.41c1.538,0.192,3.444,0.593,3.877,2.387c0.048,0.241,0.08,0.513,0.08,0.737c0,2.163-2.147,3.413-4.166,3.413c-1.73,0-3.829-1.025-4.038-3.028l-0.016-0.304l1.634-0.032l0.016,0.24v-0.064c0.112,1.042,1.378,1.586,2.419,1.586c1.202,0,2.515-0.673,2.515-1.827c0-0.112-0.016-0.24-0.048-0.384c-0.192-0.85-1.346-0.994-2.467-1.106c-1.747-0.176-3.797-0.561-3.974-2.9v0.016c-0.064-0.753,0.128-1.506,0.609-2.131c0.753-0.977,2.099-1.49,3.396-1.49c1.73,0,3.525,0.897,3.813,2.948L145.702,76.665z"/><g><path fill="#3F3F3F" d="M60.95,49.086c0,0.76-0.627,1.387-1.42,1.387c-0.759,0-1.387-0.627-1.387-1.387c0-0.792,0.627-1.419,1.387-1.419C60.322,47.667,60.95,48.294,60.95,49.086z M60.52,68.398c0,0.693,0.594,1.156,1.155,1.156c0.297,0,0.693-0.133,0.924-0.495l1.519,0.99c-0.561,0.825-1.419,1.32-2.443,1.32c-1.684,0-2.971-1.32-2.971-2.971V54.534h1.815V68.398z"/><path fill="#3F3F3F" d="M82.901,70.049c-0.594,0.956-1.551,1.32-2.41,1.32c-1.519,0-2.772-1.122-2.971-2.575c-1.057,1.782-2.872,2.575-4.985,2.575c-4.72,0-7.064-3.961-7.064-8.451c0-5.084,3.004-8.649,8.054-8.649c0.991,0,2.773,0.132,3.961,0.297h1.816v13.832c0,0.726,0.594,1.156,1.155,1.156c0.363,0,0.726-0.166,0.957-0.529L82.901,70.049z M77.487,56.25c-1.023,0-3.004-0.263-4.159-0.263c-3.928,0-5.975,3.036-5.975,6.865c0,3.433,1.65,6.801,5.215,6.801c2.08,0,3.697-1.155,4.457-2.707c0.297-0.594,0.462-1.288,0.462-2.112V56.25z"/><path fill="#3F3F3F" d="M84.709,79.578c0.679-0.222,1.451-0.968,1.371-2.528L85.969,54.5h1.815v22.15c0.07,2.829-1.359,4.552-3.075,4.552V79.578z M88.181,49.086c0,0.76-0.627,1.387-1.42,1.387c-0.759,0-1.386-0.627-1.386-1.387c0-0.792,0.627-1.419,1.386-1.419C87.553,47.667,88.181,48.294,88.181,49.086z"/><path fill="#3F3F3F" d="M105.312,69.455c-1.716,1.154-3.763,1.914-6.14,1.914c-5.083,0-7.395-3.433-7.395-7.923c0-4.258,2.08-9.177,7.262-9.177c3.235,0,5.876,1.948,5.876,5.084c0,3.3-2.872,5.084-7.262,5.084h-3.896c0.396,3.333,2.08,5.215,5.414,5.215c2.046,0,3.631-0.727,5.282-1.584L105.312,69.455z M97.654,62.72c3.103,0,5.414-0.858,5.414-3.4c0-2.343-1.915-3.432-3.928-3.432c-3.961,0-5.479,4.159-5.479,6.833H97.654z"/><path fill="#3F3F3F" d="M109.602,68.068c1.485,0.99,3.136,1.584,4.886,1.584c2.014,0,3.895-0.792,3.895-3.004c0-1.419-0.759-2.211-2.278-2.938c-2.839-1.354-6.503-1.782-6.503-5.282c0-2.707,2.179-4.159,4.853-4.159c1.354,0,3.169,0.363,4.225,1.024l-0.363,1.684c-1.386-0.727-2.872-0.99-3.895-0.99c-1.882,0-2.905,0.924-2.905,2.244c0,2.641,3.994,3.004,6.503,4.522c1.485,0.892,2.277,2.081,2.277,3.863c0,3.399-2.938,4.753-5.975,4.753c-2.212,0-4.126-0.726-5.645-1.914L109.602,68.068z"/></g><g><path fill="#3F3F3F" d="M28.351,69.256c-0.211,0-0.423-0.07-0.598-0.213L15.012,58.617c-0.21-0.172-0.336-0.426-0.346-0.697c-0.009-0.271,0.099-0.533,0.295-0.72l3.297-3.11c0.844-0.796,1.676-1.744,1.865-2.115c-0.083-0.33-0.628-1.039-1.209-1.557L2.752,38.458c-0.218-0.162-0.357-0.41-0.379-0.682c-0.022-0.271,0.073-0.539,0.263-0.734c0.154-0.159,3.791-3.909,5.641-5.367c2.771-2.184,5.692-1.847,7.653-1.178c0.611,0.208,2.653,1.241,5.935,2.909c3.152,1.602,6.726,3.418,7.763,3.794c1.092,0.396,1.692,0.447,2,0.422c0.747-0.063,2.685-1.39,3.76-2.267l25.75-21.399l6.911-5.759c0.179-0.15,0.411-0.227,0.642-0.218l12.317,0.489c0.319,0.013,0.61,0.186,0.773,0.46c0.151,0.254,3.619,6.306-3.796,13.793c-0.131,0.13-2.165,2.054-2.571,2.438c-0.134,0.12-11.592,10.366-17.41,15.818c-0.379,0.357-0.977,0.338-1.334-0.043c-0.356-0.38-0.337-0.978,0.044-1.334c5.831-5.465,17.3-15.721,17.422-15.83c0,0,2.371-2.243,2.514-2.384c5.324-5.375,4.258-9.693,3.712-11.054L68.979,9.879l-6.634,5.528L36.588,36.813c-0.527,0.431-3.206,2.557-4.801,2.691c-0.731,0.06-1.65-0.111-2.803-0.529c-1.146-0.415-4.618-2.18-7.975-3.886c-2.424-1.232-5.172-2.629-5.688-2.805c-2.207-0.752-4.185-0.458-5.875,0.875c-1.263,0.995-3.523,3.24-4.698,4.427l15.324,11.339c0.021,0.016,0.041,0.032,0.061,0.049c0.441,0.386,1.88,1.749,1.89,3.061c0.002,0.271,0.009,1.094-2.467,3.429l-2.516,2.372l11.239,9.198l7.837-8.06c0.364-0.374,0.961-0.382,1.334-0.018c0.374,0.363,0.382,0.96,0.019,1.334l-8.441,8.68C28.843,69.161,28.597,69.256,28.351,69.256z"/><path fill="#3F3F3F" d="M40.975,72.479c-0.132,0-0.264-0.027-0.389-0.084c-0.338-0.153-0.555-0.489-0.555-0.859V48.225c0-0.521,0.422-0.944,0.944-0.944s0.944,0.423,0.944,0.944v21.224l10.518-9.245V38.786c0-0.521,0.422-0.944,0.944-0.944s0.944,0.423,0.944,0.944V60.63c0,0.271-0.117,0.53-0.321,0.709L41.598,72.244C41.423,72.398,41.2,72.479,40.975,72.479z"/><g><path fill="#3F3F3F" d="M59.161,22.925c0.462,0.602,0.347,1.481-0.281,1.964c-0.603,0.462-1.481,0.348-1.944-0.254c-0.483-0.629-0.368-1.509,0.235-1.971C57.798,22.181,58.678,22.296,59.161,22.925z"/><path fill="#3F3F3F" d="M65.292,18.215c0.463,0.602,0.346,1.481-0.282,1.965c-0.602,0.462-1.481,0.347-1.943-0.256c-0.483-0.628-0.368-1.508,0.234-1.97C63.929,17.471,64.809,17.586,65.292,18.215z"/><path fill="#3F3F3F" d="M71.422,13.505c0.463,0.603,0.347,1.482-0.281,1.964c-0.603,0.463-1.482,0.349-1.945-0.254c-0.483-0.628-0.367-1.509,0.235-1.971C70.06,12.761,70.94,12.877,71.422,13.505z"/></g></g></g></svg>