<svg version="1.1" id="Capa_1" xmlns="http://www.w3.org/2000/svg" xmlns:xlink="http://www.w3.org/1999/xlink" x="0px" y="0px" width="38px" height="38px" viewBox="0 0 38 38" enable-background="new 0 0 38 38" xml:space="preserve"><g><path fill="#FFFFFF" d="M18.936,37.75c-0.492,0-0.984-0.182-1.369-0.543c-0.5-0.469-12.256-11.629-12.256-22.02c0-7.617,6.196-13.813,13.813-13.813c3.727,0,7.358,1.527,9.963,4.189c2.562,2.619,3.929,6.051,3.85,9.666c-0.225,10.201-12.124,21.5-12.63,21.977C19.92,37.568,19.428,37.75,18.936,37.75z M19.123,4.041c-5.935,0-10.764,4.829-10.764,10.764c0,7.44,7.329,16.017,10.561,19.436c3.283-3.453,10.806-12.146,10.967-19.485c0.062-2.774-0.994-5.416-2.973-7.438C24.877,5.234,22.037,4.041,19.123,4.041z"/><path fill="#FFFFFF" d="M19.353,21.186c-2.929,0-5.311-2.382-5.311-5.309c0-2.931,2.382-5.313,5.311-5.313c2.928,0,5.31,2.382,5.31,5.313C24.662,18.804,22.28,21.186,19.353,21.186z M19.353,12.928c-1.624,0-2.946,1.323-2.946,2.949c0,1.622,1.322,2.945,2.946,2.945s2.946-1.323,2.946-2.945C22.299,14.251,20.977,12.928,19.353,12.928z"/></g></svg>