<?xml version="1.0" encoding="iso-8859-1"?>
<!DOCTYPE svg PUBLIC "-//W3C//DTD SVG 1.1//EN" "http://www.w3.org/Graphics/SVG/1.1/DTD/svg11.dtd">
<svg version="1.1" id="Capa_1" xmlns="http://www.w3.org/2000/svg" xmlns:xlink="http://www.w3.org/1999/xlink" x="0px" y="0px"
	 width="64px" height="64px" viewBox="0 0 64 64" style="enable-background:new 0 0 64 64;" xml:space="preserve">
<g>
	<path d="M55.3,7.188c-1.598-0.373-4.77,1.089-7.085,3.268L36.5,21.482c-0.462,0.437-1.319,0.603-1.912,0.373L13.22,13.576
		c-0.593-0.229-1.481-0.101-1.983,0.29l-4.214,3.267c-0.502,0.39-0.466,0.968,0.082,1.292l19.687,11.632
		c0.547,0.323,0.519,0.792-0.037,1.101c-2.138,1.186-6.267,5.043-11.181,11.946c-0.369,0.518-1.043,0.956-1.674,0.875L8.98,43.347
		c-0.631-0.081-1.476,0.246-1.887,0.73l-1.648,1.94c-0.412,0.484-0.282,1.102,0.29,1.38l4.393,2.133
		c0.572,0.278,0.806,0.966,0.607,1.57c-0.211,0.64-0.421,1.5-0.426,2.406c-0.004,0.636,0.62,1.273,1.255,1.302
		c0.883,0.041,2.155-0.074,3.367-0.812c0.543-0.332,1.13-0.232,1.4,0.344l2.594,5.547c0.27,0.577,0.892,0.723,1.391,0.328
		l1.149-0.909c0.499-0.395,0.863-1.229,0.814-1.863l-0.439-5.707c-0.049-0.634,0.357-1.407,0.898-1.742
		c2.488-1.538,9.033-5.829,11.955-10.119c0.358-0.526,0.877-0.545,1.214-0.007l11.457,18.241c0.337,0.538,0.971,0.604,1.414,0.148
		l2.336-2.41c0.443-0.457,0.639-1.315,0.438-1.918l-7.52-22.564c-0.201-0.602-0.016-1.472,0.414-1.94L54.796,18.14
		c2.149-2.343,3.78-5.591,3.644-7.257C58.304,9.216,56.898,7.562,55.3,7.188z"/>
</g>
</svg>
