<?xml version="1.0" encoding="utf-8"?>
<!-- Generator: Adobe Illustrator 16.0.0, SVG Export Plug-In . SVG Version: 6.00 Build 0)  -->
<!DOCTYPE svg PUBLIC "-//W3C//DTD SVG 1.1//EN" "http://www.w3.org/Graphics/SVG/1.1/DTD/svg11.dtd">
<svg version="1.1" id="Capa_1" xmlns="http://www.w3.org/2000/svg" xmlns:xlink="http://www.w3.org/1999/xlink" x="0px" y="0px"
	 width="200px" height="150px" viewBox="0 0 200 150" enable-background="new 0 0 200 150" xml:space="preserve">
<g>
	<path fill="#4D4C4C" d="M14.885,89.018c-1.851,0-3.455-0.51-4.815-1.529c-1.36-1.021-2.407-2.306-3.142-3.856l1.143-1.143
		c0.653,1.441,1.544,2.632,2.673,3.57c1.128,0.939,2.51,1.407,4.142,1.407c1.333,0,2.414-0.196,3.245-0.592
		c0.829-0.394,1.476-0.869,1.938-1.428c0.462-0.558,0.775-1.135,0.938-1.735c0.164-0.597,0.245-1.101,0.245-1.509
		s-0.047-0.837-0.143-1.286c-0.095-0.449-0.347-0.931-0.755-1.448c-0.408-0.516-1.02-1.04-1.836-1.572
		c-0.816-0.529-1.933-1.079-3.347-1.651c-1.524-0.598-2.754-1.19-3.693-1.775c-0.939-0.584-1.667-1.162-2.184-1.734
		c-0.517-0.572-0.871-1.144-1.061-1.714c-0.191-0.572-0.286-1.143-0.286-1.714c0-0.707,0.123-1.436,0.367-2.183
		c0.245-0.749,0.646-1.435,1.204-2.061c0.557-0.625,1.286-1.136,2.183-1.532c0.898-0.394,2-0.59,3.305-0.59
		c1.878,0,3.415,0.435,4.612,1.306c1.196,0.871,2.108,2.082,2.734,3.632l-1.225,1.101c-0.489-1.496-1.224-2.618-2.203-3.367
		c-0.98-0.747-2.286-1.122-3.918-1.122c-1.197,0-2.163,0.191-2.897,0.572c-0.735,0.38-1.3,0.83-1.694,1.346
		c-0.395,0.518-0.653,1.047-0.775,1.593c-0.122,0.545-0.183,0.979-0.183,1.305c0,0.381,0.108,0.79,0.326,1.224
		c0.218,0.436,0.571,0.892,1.061,1.367c0.49,0.477,1.136,0.968,1.938,1.47c0.802,0.503,1.802,1,3,1.49
		c1.469,0.598,2.659,1.21,3.57,1.836s1.618,1.251,2.123,1.878c0.503,0.625,0.843,1.244,1.02,1.855
		c0.177,0.612,0.265,1.205,0.265,1.775c0,0.6-0.123,1.285-0.367,2.061c-0.245,0.775-0.667,1.518-1.266,2.225
		c-0.598,0.707-1.401,1.306-2.407,1.795C17.714,88.772,16.436,89.018,14.885,89.018z"/>
	<path fill="#4D4C4C" d="M40.717,89.06c-1.877,0-3.599-0.335-5.163-1c-1.564-0.667-2.917-1.598-4.061-2.796
		c-1.17-1.169-2.075-2.53-2.714-4.08c-0.64-1.552-0.958-3.225-0.958-5.021c0-1.794,0.319-3.474,0.958-5.04
		c0.639-1.564,1.544-2.931,2.714-4.102c1.143-1.168,2.496-2.094,4.061-2.774c1.564-0.68,3.285-1.021,5.163-1.021
		c1.877,0,3.598,0.341,5.162,1.021c1.564,0.681,2.931,1.606,4.101,2.774c1.143,1.17,2.04,2.537,2.693,4.102
		c0.653,1.565,0.979,3.245,0.979,5.04c0,1.796-0.326,3.469-0.979,5.021c-0.653,1.55-1.55,2.911-2.693,4.08
		c-1.17,1.198-2.537,2.129-4.101,2.796C44.314,88.725,42.594,89.06,40.717,89.06z M29.372,76.163c0,1.551,0.285,3.021,0.857,4.407
		c0.571,1.388,1.36,2.592,2.366,3.612c1.007,1.02,2.204,1.83,3.591,2.429c1.388,0.598,2.897,0.896,4.53,0.896
		c1.659,0,3.183-0.299,4.57-0.896c1.388-0.599,2.585-1.409,3.591-2.429c1.006-1.021,1.796-2.225,2.367-3.612
		c0.571-1.387,0.857-2.856,0.857-4.407c0-1.577-0.286-3.053-0.857-4.428c-0.571-1.374-1.361-2.576-2.367-3.611
		c-1.006-1.034-2.203-1.851-3.591-2.449c-1.387-0.598-2.911-0.898-4.57-0.898c-1.633,0-3.143,0.3-4.53,0.898
		c-1.387,0.598-2.584,1.415-3.591,2.449c-1.006,1.035-1.795,2.237-2.366,3.611C29.657,73.11,29.372,74.586,29.372,76.163z"/>
	<path fill="#4D4C4C" d="M80.341,85.019c-1.252,1.252-2.688,2.238-4.306,2.959c-1.619,0.721-3.367,1.082-5.244,1.082
		c-1.851-0.056-3.551-0.396-5.101-1.021c-1.551-0.625-2.938-1.551-4.163-2.775c-1.143-1.196-2.034-2.571-2.673-4.121
		c-0.639-1.552-0.958-3.211-0.958-4.979c0-1.794,0.319-3.474,0.958-5.04c0.639-1.564,1.53-2.945,2.673-4.142
		c1.143-1.169,2.503-2.087,4.082-2.755c1.577-0.665,3.305-1,5.183-1c1.877,0,3.625,0.361,5.244,1.083
		c1.618,0.72,3.054,1.707,4.306,2.958l-1.061,1.102c-1.116-1.143-2.395-2.026-3.836-2.652c-1.442-0.626-2.993-0.939-4.652-0.939
		c-1.66,0-3.183,0.3-4.571,0.898c-1.387,0.598-2.585,1.408-3.591,2.427c-1.007,1.021-1.79,2.225-2.347,3.612
		c-0.558,1.388-0.836,2.871-0.836,4.448c0,1.551,0.279,3.021,0.836,4.407c0.557,1.388,1.34,2.592,2.347,3.612
		c1.006,1.02,2.204,1.83,3.591,2.429c1.388,0.598,2.911,0.896,4.571,0.896c1.632,0,3.169-0.319,4.611-0.958
		c1.442-0.639,2.72-1.531,3.836-2.673L80.341,85.019z"/>
	<path fill="#4D4C4C" d="M88.789,88.569h-1.551V63.676h1.551V88.569z"/>
	<path fill="#4D4C4C" d="M113.436,88.569l-3.142-7.386H97.888l-3.183,7.386h-1.673l11.019-26.281l11.059,26.281H113.436z
		 M109.642,79.632l-5.591-13.915L98.5,79.632H109.642z"/>
	<path fill="#4D4C4C" d="M135.391,88.569h-15.14V63.676h1.51v23.342h13.63V88.569z"/>
	<path fill="#4D4C4C" d="M155.591,67.308h-6.569v21.261h-4.367V67.308h-6.855v-3.632h17.792V67.308z"/>
	<path fill="#4D4C4C" d="M164.895,88.569h-4.366l-0.041-24.893h4.407V88.569z"/>
	<path fill="#4D4C4C" d="M193.664,84.203c-1.469,1.469-3.108,2.639-4.917,3.509c-1.811,0.87-3.693,1.306-5.652,1.306
		c-1.932-0.054-3.687-0.394-5.264-1.019c-1.579-0.626-2.979-1.552-4.203-2.776c-1.171-1.223-2.068-2.611-2.694-4.162
		s-0.938-3.183-0.938-4.897c-0.028-1.768,0.277-3.427,0.918-4.978c0.638-1.551,1.543-2.938,2.714-4.164
		c1.143-1.168,2.522-2.088,4.142-2.754c1.618-0.666,3.407-0.999,5.366-0.999c1.958,0,3.829,0.429,5.611,1.285
		c1.781,0.857,3.408,2.021,4.877,3.489l-2.734,2.938c-1.279-1.279-2.578-2.277-3.897-2.999c-1.32-0.721-2.605-1.081-3.856-1.081
		c-1.279,0-2.463,0.244-3.551,0.733c-1.088,0.491-2.026,1.15-2.816,1.979c-0.789,0.83-1.401,1.81-1.835,2.939
		c-0.437,1.129-0.653,2.333-0.653,3.611c0,1.279,0.217,2.476,0.653,3.592c0.434,1.115,1.046,2.088,1.835,2.918
		c0.79,0.829,1.729,1.488,2.816,1.979c1.088,0.489,2.271,0.734,3.551,0.734c1.224,0,2.503-0.367,3.836-1.102
		c1.333-0.733,2.625-1.728,3.877-2.979L193.664,84.203z"/>
</g>
</svg>
