<?xml version="1.0" encoding="utf-8"?>
<!-- Generator: Adobe Illustrator 16.0.0, SVG Export Plug-In . SVG Version: 6.00 Build 0)  -->
<!DOCTYPE svg PUBLIC "-//W3C//DTD SVG 1.1//EN" "http://www.w3.org/Graphics/SVG/1.1/DTD/svg11.dtd">
<svg version="1.1" id="Layer_1" xmlns="http://www.w3.org/2000/svg" xmlns:xlink="http://www.w3.org/1999/xlink" x="0px" y="0px"
	 width="126px" height="126px" viewBox="0 0 126 126" enable-background="new 0 0 126 126" xml:space="preserve">
<path d="M122.5,23.482H3.5c-1.104,0-2,0.896-2,2v75.035c0,1.104,0.896,2,2,2h119c1.104,0,2-0.896,2-2V25.482
	C124.5,24.379,123.604,23.482,122.5,23.482z M8.666,34.918h39.113v4.834H8.666V34.918z M16.291,87.809h-2.086v6.674h-2.314v-6.674
	H9.799v-1.893h6.492V87.809z M19.637,94.482h-2.326v-8.566h2.326V94.482z M25.229,92.707c0.379,0,0.746-0.053,1.102-0.158
	s0.713-0.232,1.072-0.381v1.957c-0.715,0.316-1.523,0.475-2.426,0.475c-1.293,0-2.285-0.375-2.975-1.125s-1.033-1.834-1.033-3.252
	c0-0.887,0.166-1.666,0.5-2.338s0.814-1.188,1.441-1.549s1.365-0.543,2.213-0.543c0.926,0,1.811,0.201,2.654,0.604l-0.709,1.822
	c-0.316-0.148-0.633-0.273-0.949-0.375s-0.656-0.152-1.02-0.152c-0.551,0-0.98,0.227-1.289,0.678s-0.463,1.072-0.463,1.865
	C23.348,91.883,23.975,92.707,25.229,92.707z M36.187,94.482h-2.613l-1.693-3.275l-0.686,0.41v2.865h-2.326v-8.566h2.326v3.721
	c0.117-0.23,0.354-0.596,0.709-1.096l1.799-2.625h2.531l-2.701,3.838L36.187,94.482z M41.994,87.773h-2.771v1.348h2.566v1.857
	h-2.566v1.617h2.771v1.887h-5.086v-8.566h5.086V87.773z M49.155,87.809h-2.086v6.674h-2.314v-6.674h-2.092v-1.893h6.492V87.809z
	 M63.834,66.584H8.666V61.75h55.168V66.584z M63.834,52.834H8.666V48h55.168V52.834z M116.914,70.475L98.984,65.9l-0.424,13.551
	c-0.037,0.221-0.024,1.014-0.024,1.014s0.251,0.229,0.468,0.396l2.811,2.172l0.549,4.279c-0.059-0.008-0.119-0.016-0.183-0.037
	l-4.162-1.25c-0.522-0.182-0.616-0.561-0.606-0.813c-0.079,0.23-0.248,0.648-0.598,1.344c0,0-0.962,2.293-1.808,2.293h-0.014
	c-0.834,0-1.808-2.293-1.808-2.293c-0.35-0.697-0.519-1.113-0.598-1.344c0.01,0.252-0.084,0.631-0.606,0.813l-4.162,1.25
	c-0.063,0.021-0.124,0.029-0.183,0.037l0.549-4.279l2.811-2.172c0.217-0.168,0.469-0.396,0.469-0.396s0.012-0.793-0.025-1.014
	L91.016,65.9l-17.93,4.574c-0.483,0.123-0.822-0.178-0.761-0.67l0.523-4.143c0.063-0.496,0.483-1.057,0.938-1.26l17.271-7.609
	l0.382-13.49c0.074-2.49,1.021-5.057,2.112-5.734c0.416-0.26,0.921-0.391,1.441-0.418h0.014c0.521,0.027,1.025,0.158,1.441,0.418
	c1.092,0.678,2.038,3.244,2.112,5.734l0.382,13.49l17.271,7.609c0.455,0.203,0.875,0.764,0.938,1.26l0.524,4.143
	C117.736,70.297,117.397,70.598,116.914,70.475z"/>
</svg>
