<svg version="1.1" xmlns="http://www.w3.org/2000/svg" xmlns:xlink="http://www.w3.org/1999/xlink" x="0px" y="0px" width="38.875px" height="52.375px" viewBox="0 0 38.875 52.375" enable-background="new 0 0 38.875 52.375" xml:space="preserve"><path fill="#FFFFFF" d="M4.897,37.812c0.402,0.378,1.033,0.359,1.414-0.041l13.98-14.808l13.981,14.808c0.379,0.4,1.012,0.419,1.413,0.041c0.401-0.38,0.42-1.013,0.041-1.414L21.104,20.908c-0.197-0.208-0.462-0.313-0.728-0.313c-0.028,0-0.056,0.014-0.084,0.016c-0.028-0.002-0.056-0.016-0.084-0.016c-0.266,0-0.53,0.105-0.728,0.313L4.856,36.397C4.478,36.799,4.496,37.432,4.897,37.812z"/></svg>